<?xml version="1.0" encoding="UTF-8"?>
<svg width="505px" height="110px" viewBox="0 0 505 110" version="1.1" xmlns="http://www.w3.org/2000/svg" xmlns:xlink="http://www.w3.org/1999/xlink">
    <!-- Generator: Sketch 41.2 (35397) - http://www.bohemiancoding.com/sketch -->
    <title>Page 1</title>
    <desc>Created with Sketch.</desc>
    <defs>
        <polygon id="path-1" points="0 110 504.495 110 504.495 0.496 0 0.496"></polygon>
    </defs>
    <g id="Page-1" stroke="none" stroke-width="1" fill="none" fill-rule="evenodd">
        <g transform="translate(0.000000, -1.000000)">
            <polygon id="Fill-1" fill="#1E130F" points="180.3335 86.6769 180.3335 52.8379 146.3755 52.8379 146.3755 86.6769 127.4165 86.6769 127.4165 1.6009 146.3755 1.6009 146.3755 34.9589 180.3335 34.9589 180.3335 1.6009 199.4135 1.6009 199.4135 86.6769"></polygon>
            <g id="Group-55" transform="translate(0.000000, 0.504000)">
                <path d="M246.5747,49.2139 C246.3347,44.6539 243.2147,39.1349 234.5747,39.1349 C226.8957,39.1349 223.0557,44.7749 222.6957,49.2139 L246.5747,49.2139 Z M263.1337,69.0139 C260.2537,79.3329 250.7747,87.9729 235.6547,87.9729 C219.2157,87.9729 204.5757,76.2129 204.5757,56.1739 C204.5757,36.9749 218.8557,24.7349 234.3347,24.7349 C252.8147,24.7349 264.2137,36.1349 264.2137,55.3339 C264.2137,57.8549 263.9737,60.6139 263.8537,60.9739 L222.3357,60.9739 C222.6957,67.6929 228.8157,72.4929 235.8947,72.4929 C242.4947,72.4929 246.2147,69.3739 247.8947,64.6929 L263.1337,69.0139 Z" id="Fill-2" fill="#1E130F"></path>
                <path d="M287.1343,86.1729 L268.8953,86.1729 L268.8953,26.5349 L286.5343,26.5349 L286.5343,33.3749 C289.7743,27.7349 297.0943,24.9759 303.2143,24.9759 C318.2133,24.9759 324.9333,35.6549 324.9333,48.7349 L324.9333,86.1729 L306.6943,86.1729 L306.6943,51.8549 C306.6943,45.9749 303.5733,41.5339 296.9743,41.5339 C290.9743,41.5339 287.1343,45.9749 287.1343,51.9749 L287.1343,86.1729 Z" id="Fill-4" fill="#1E130F"></path>
                <path d="M371.1313,44.5342 C369.0913,44.0552 367.1713,43.9342 365.3713,43.9342 C358.0523,43.9342 351.4523,48.2552 351.4523,60.1342 L351.4523,86.1732 L333.2133,86.1732 L333.2133,26.5352 L350.8523,26.5352 L350.8523,34.5752 C353.9723,27.8552 361.5313,25.9352 366.3313,25.9352 C368.1313,25.9352 369.9313,26.1752 371.1313,26.5352 L371.1313,44.5342 Z" id="Fill-6" fill="#1E130F"></path>
                <polygon id="Fill-8" fill="#1E130F" points="382.1724 109.0918 395.7314 78.1328 370.6524 26.5348 391.0514 26.5348 405.5714 58.4538 418.7704 26.5348 438.0904 26.5348 401.3714 109.0918"></polygon>
                <path d="M446.2505,0.4961 C453.4495,0.4961 457.4095,6.3761 457.4095,12.6161 C457.4095,29.1751 445.6505,35.0551 437.7305,35.6551 L437.7305,27.4951 C441.9305,27.0161 447.4505,23.8951 447.9305,18.2561 C447.9305,18.3761 446.4905,18.8551 445.2905,18.8551 C439.2905,18.8551 435.9315,14.8951 435.9315,9.7361 C435.9315,4.6961 440.1305,0.4961 446.2505,0.4961" id="Fill-10" fill="#1E130F"></path>
                <path d="M466.0513,66.4932 C466.2903,70.5732 469.1703,74.5332 475.4103,74.5332 C480.0903,74.5332 482.3703,72.0142 482.3703,69.3742 C482.3703,67.2142 480.9303,65.4142 476.4903,64.4542 L469.6513,62.8932 C456.9313,60.1342 451.8913,52.9342 451.8913,44.5342 C451.8913,33.6152 461.4903,24.7352 474.8113,24.7352 C492.0903,24.7352 498.0893,35.5352 498.6903,42.4952 L483.5703,45.2552 C483.0903,41.2952 480.5713,37.9342 475.0503,37.9342 C471.5713,37.9342 468.5713,39.9742 468.5713,43.0952 C468.5713,45.6142 470.6113,47.0552 473.2503,47.5342 L481.1703,49.0952 C493.5303,51.6142 499.5303,59.0542 499.5303,67.8132 C499.5303,78.0132 491.7303,87.9722 475.7703,87.9722 C457.0513,87.9722 451.0513,75.8532 450.5723,69.2542 L466.0513,66.4932 Z" id="Fill-12" fill="#1E130F"></path>
                <path d="M101.4551,83.9736 C101.4551,85.6676 100.0511,87.0396 98.3191,87.0396 L18.3001,87.0396 C16.5691,87.0396 15.1651,85.6676 15.1651,83.9736 L15.1651,5.7396 C15.1651,4.0456 16.5691,2.6726 18.3001,2.6726 L98.3191,2.6726 C100.0511,2.6726 101.4551,4.0456 101.4551,5.7396 L101.4551,83.9736 Z" id="Fill-14" fill="#E3472D"></path>
                <polygon id="Fill-16" fill="#FEFEFE" points="55.8789 106.5439 55.8789 71.0929 32.7119 71.0929 32.7119 106.5439 2.9999 106.5439 2.9999 12.8079 32.7119 12.8079 32.7119 45.4119 55.8789 45.4119 55.8789 12.8079 85.5909 12.8079 85.5909 106.5439"></polygon>
                <path d="M88.5913,9.8076 L82.5913,9.8076 L58.8793,9.8076 L52.8793,9.8076 L52.8793,15.8076 L52.8793,42.4116 L35.7123,42.4116 L35.7123,15.8076 L35.7123,9.8076 L29.7123,9.8076 L6.0003,9.8076 L0.0003,9.8076 L0.0003,15.8076 L0.0003,103.5436 L0.0003,109.5436 L6.0003,109.5436 L29.7123,109.5436 L35.7123,109.5436 L35.7123,103.5436 L35.7123,74.0936 L52.8793,74.0936 L52.8793,103.5436 L52.8793,109.5436 L58.8793,109.5436 L82.5913,109.5436 L88.5913,109.5436 L88.5913,103.5436 L88.5913,15.8076 L88.5913,9.8076 Z M82.5913,15.8076 L82.5913,103.5436 L58.8793,103.5436 L58.8793,68.0936 L29.7123,68.0936 L29.7123,103.5436 L6.0003,103.5436 L6.0003,15.8076 L29.7123,15.8076 L29.7123,48.4116 L58.8793,48.4116 L58.8793,15.8076 L82.5913,15.8076 Z" id="Fill-18" fill="#E3472D"></path>
                <polygon id="Fill-20" fill="#E3472D" points="87.6221 108.8896 101.4551 85.6686 85.1521 85.1756"></polygon>
                <polygon id="Fill-22" fill="#E3472D" points="35.7495 108.8896 53.5345 87.1516 35.7495 85.1756"></polygon>
                <polygon id="Fill-24" fill="#E3472D" points="0.1787 9.5889 16.4817 2.6729 17.4707 10.5779"></polygon>
                <path d="M129.21,97.1826 L132.015,97.1826 L135.38,107.1616 L135.415,107.1616 L138.678,97.1826 L141.534,97.1826 L141.534,109.7616 L139.477,109.7616 L139.477,100.3786 L139.443,100.3786 C139.256,101.2446 138.984,102.0616 138.695,102.9456 L136.248,109.7616 L134.36,109.7616 L131.93,102.9456 C131.624,102.0446 131.437,101.5006 131.165,100.2936 L131.131,100.2936 L131.131,109.7616 L129.21,109.7616 L129.21,97.1826 Z" id="Fill-26" fill="#AFAEB4"></path>
                <path d="M151.5947,104.9004 L149.8777,99.8004 L149.8437,99.8004 L148.0937,104.9004 L151.5947,104.9004 Z M148.8747,97.1314 L150.9657,97.1314 L155.4197,109.7614 L153.2437,109.7614 L152.2237,106.7694 L147.4477,106.7694 L146.4097,109.7614 L144.4217,109.7614 L148.8747,97.1314 Z" id="Fill-28" fill="#AFAEB4"></path>
                <polygon id="Fill-30" fill="#AFAEB4" points="158.2983 97.1826 160.4233 97.1826 160.4233 103.0306 165.3693 97.1826 167.8853 97.1826 163.6023 102.0276 168.4123 109.7616 165.9813 109.7616 162.2083 103.6596 160.4233 105.6306 160.4233 109.7616 158.2983 109.7616"></polygon>
                <mask id="mask-2" fill="white">
                    <use xlink:href="#path-1"></use>
                </mask>
                <g id="Clip-33"></g>
                <polygon id="Fill-32" fill="#AFAEB4" mask="url(#mask-2)" points="171.309 109.762 173.451 109.762 173.451 97.183 171.309 97.183"></polygon>
                <polygon id="Fill-34" fill="#AFAEB4" mask="url(#mask-2)" points="177.4028 97.1826 179.5618 97.1826 185.5108 106.1586 185.5448 106.1586 185.5448 97.1826 187.5168 97.1826 187.5168 109.7616 185.5788 109.7616 179.4088 100.5996 179.3748 100.5996 179.3748 109.7616 177.4028 109.7616"></polygon>
                <path d="M190.877,103.4209 C190.877,99.3929 193.07,96.9449 196.419,96.9449 C198.798,96.9449 200.549,98.0499 201.297,100.9049 L199.325,101.4329 C198.764,99.5459 197.898,98.9169 196.401,98.9169 C194.906,98.9169 193.019,99.8349 193.019,103.3699 C193.019,106.8889 194.702,108.0959 196.486,108.0959 C198.152,108.0959 199.291,107.1099 199.427,105.2569 L196.895,105.2569 L196.895,103.5399 L201.467,103.5399 L201.467,109.7619 L199.716,109.7619 L199.716,107.9429 L199.682,107.9429 C199.291,108.8439 198.186,109.9999 196.249,109.9999 C192.645,109.9999 190.877,107.2629 190.877,103.4209" id="Fill-35" fill="#AFAEB4" mask="url(#mask-2)"></path>
                <path d="M215.6113,107.9258 C217.4133,107.9258 218.1943,107.3478 218.1943,106.0898 C218.1943,104.7468 217.1753,104.2378 215.3903,104.2378 L212.8573,104.2378 L212.8573,107.9258 L215.6113,107.9258 Z M215.3223,102.4358 C216.9883,102.4358 217.8723,101.9258 217.8723,100.7188 C217.8723,99.5118 217.1073,99.0528 215.3563,99.0528 L212.8573,99.0528 L212.8573,102.4358 L215.3223,102.4358 Z M210.7663,97.1828 L215.5263,97.1828 C218.0423,97.1828 219.9113,97.9988 219.9113,100.3108 C219.9113,102.0618 218.9603,102.9458 217.6853,103.1998 L217.6853,103.2348 C219.2323,103.5238 220.2853,104.3908 220.2853,106.3118 C220.2853,108.6228 218.3993,109.7618 215.8323,109.7618 L210.7663,109.7618 L210.7663,97.1828 Z" id="Fill-36" fill="#AFAEB4" mask="url(#mask-2)"></path>
                <path d="M228.1504,102.9453 C229.9184,102.9453 230.8704,102.5043 230.8704,101.0083 C230.8704,99.5623 229.9354,99.1213 228.1334,99.1213 L225.8214,99.1213 L225.8214,102.9453 L228.1504,102.9453 Z M223.7314,97.1823 L228.2354,97.1823 C231.2274,97.1823 232.9614,98.3893 232.9614,100.9573 C232.9614,102.9633 231.9244,104.1013 230.1734,104.5263 L233.1314,109.7613 L230.8534,109.7613 L228.0314,104.7983 L225.8214,104.7983 L225.8214,109.7613 L223.7314,109.7613 L223.7314,97.1823 Z" id="Fill-37" fill="#AFAEB4" mask="url(#mask-2)"></path>
                <path d="M242.9297,104.9004 L241.2127,99.8004 L241.1787,99.8004 L239.4287,104.9004 L242.9297,104.9004 Z M240.2097,97.1314 L242.3007,97.1314 L246.7547,109.7614 L244.5787,109.7614 L243.5587,106.7694 L238.7827,106.7694 L237.7447,109.7614 L235.7567,109.7614 L240.2097,97.1314 Z" id="Fill-38" fill="#AFAEB4" mask="url(#mask-2)"></path>
                <polygon id="Fill-39" fill="#AFAEB4" mask="url(#mask-2)" points="249.6333 97.1826 251.7923 97.1826 257.7413 106.1586 257.7753 106.1586 257.7753 97.1826 259.7473 97.1826 259.7473 109.7616 257.8093 109.7616 251.6393 100.5996 251.6053 100.5996 251.6053 109.7616 249.6333 109.7616"></polygon>
                <path d="M267.4336,107.8574 C270.3066,107.8574 271.6486,106.5994 271.6486,103.4204 C271.6486,100.3954 270.2886,99.1544 267.3996,99.1544 L265.7846,99.1544 L265.7846,107.8574 L267.4336,107.8574 Z M263.6596,97.1824 L267.2466,97.1824 C271.1896,97.1824 273.7736,99.0184 273.7736,103.4204 C273.7736,107.9094 271.1396,109.7614 267.2466,109.7614 L263.6596,109.7614 L263.6596,97.1824 Z" id="Fill-40" fill="#AFAEB4" mask="url(#mask-2)"></path>
                <path d="M276.2368,106.8037 L277.9198,105.9197 C278.6678,107.3997 279.8228,108.1137 281.3868,108.1137 C282.9168,108.1137 283.9538,107.6197 283.9538,106.4817 C283.9538,105.3937 283.1718,104.8827 281.0978,104.2717 C278.6678,103.5577 276.7128,102.8947 276.7128,100.4977 C276.7128,98.3557 278.4638,96.9457 281.0128,96.9457 C283.4948,96.9457 284.9568,98.1687 285.7218,99.6477 L284.1748,100.7187 C283.4268,99.4607 282.3558,98.8827 280.9958,98.8827 C279.6018,98.8827 278.8028,99.3927 278.8028,100.3107 C278.8028,101.4837 279.7038,101.8747 281.7608,102.4867 C284.1408,103.1837 286.0448,103.9647 286.0448,106.3277 C286.0448,108.3847 284.2938,109.9997 281.3018,109.9997 C278.8028,109.9997 277.0358,108.7077 276.2368,106.8037" id="Fill-41" fill="#AFAEB4" mask="url(#mask-2)"></path>
                <path d="M299.8149,107.9258 C301.6169,107.9258 302.3979,107.3478 302.3979,106.0898 C302.3979,104.7468 301.3789,104.2378 299.5939,104.2378 L297.0609,104.2378 L297.0609,107.9258 L299.8149,107.9258 Z M299.5259,102.4358 C301.1919,102.4358 302.0759,101.9258 302.0759,100.7188 C302.0759,99.5118 301.3109,99.0528 299.5599,99.0528 L297.0609,99.0528 L297.0609,102.4358 L299.5259,102.4358 Z M294.9699,97.1828 L299.7299,97.1828 C302.2459,97.1828 304.1149,97.9988 304.1149,100.3108 C304.1149,102.0618 303.1639,102.9458 301.8889,103.1998 L301.8889,103.2348 C303.4359,103.5238 304.4889,104.3908 304.4889,106.3118 C304.4889,108.6228 302.6029,109.7618 300.0359,109.7618 L294.9699,109.7618 L294.9699,97.1828 Z" id="Fill-42" fill="#AFAEB4" mask="url(#mask-2)"></path>
                <polygon id="Fill-43" fill="#AFAEB4" mask="url(#mask-2)" points="307.9341 97.1826 316.0591 97.1826 316.0591 99.1546 310.0591 99.1546 310.0591 102.2826 314.4611 102.2826 314.4611 104.1686 310.0591 104.1686 310.0591 107.8246 316.3991 107.8246 316.3991 109.7616 307.9341 109.7616"></polygon>
                <path d="M318.5967,103.4385 C318.5967,99.2225 320.9597,96.9455 324.1207,96.9455 C327.0447,96.9455 328.4387,98.5595 328.9997,100.8545 L326.9767,101.4325 C326.5007,99.7665 325.7697,98.9175 324.1037,98.9175 C321.9797,98.9175 320.7387,100.5655 320.7387,103.4205 C320.7387,106.4135 322.0137,108.0615 324.1387,108.0615 C325.7697,108.0615 326.6877,107.2465 327.1637,105.3595 L329.1867,105.8185 C328.5747,108.3165 327.0277,110.0005 324.1207,110.0005 C320.8917,110.0005 318.5967,107.7725 318.5967,103.4385" id="Fill-44" fill="#AFAEB4" mask="url(#mask-2)"></path>
                <path d="M341.0405,103.4727 C341.0405,100.5147 339.6295,98.8997 337.5215,98.8997 C335.3805,98.8997 333.9695,100.5147 333.9695,103.4727 C333.9695,106.4297 335.3805,108.0787 337.5215,108.0787 C339.6295,108.0787 341.0405,106.4297 341.0405,103.4727 M331.8275,103.4727 C331.8275,99.2407 334.3265,96.9457 337.5215,96.9457 C340.7005,96.9457 343.1825,99.2407 343.1825,103.4727 C343.1825,107.7047 340.7005,109.9997 337.5215,109.9997 C334.3265,109.9997 331.8275,107.7047 331.8275,103.4727" id="Fill-45" fill="#AFAEB4" mask="url(#mask-2)"></path>
                <path d="M346.522,97.1826 L349.327,97.1826 L352.692,107.1616 L352.727,107.1616 L355.99,97.1826 L358.846,97.1826 L358.846,109.7616 L356.789,109.7616 L356.789,100.3786 L356.755,100.3786 C356.568,101.2446 356.296,102.0616 356.007,102.9456 L353.56,109.7616 L351.672,109.7616 L349.242,102.9456 C348.936,102.0446 348.749,101.5006 348.477,100.2936 L348.443,100.2936 L348.443,109.7616 L346.522,109.7616 L346.522,97.1826 Z" id="Fill-46" fill="#AFAEB4" mask="url(#mask-2)"></path>
                <polygon id="Fill-47" fill="#AFAEB4" mask="url(#mask-2)" points="362.7671 97.1826 370.8921 97.1826 370.8921 99.1546 364.8921 99.1546 364.8921 102.2826 369.2941 102.2826 369.2941 104.1686 364.8921 104.1686 364.8921 107.8246 371.2321 107.8246 371.2321 109.7616 362.7671 109.7616"></polygon>
                <path d="M429.626,104.9004 L427.909,99.8004 L427.875,99.8004 L426.124,104.9004 L429.626,104.9004 Z M426.906,97.1314 L428.997,97.1314 L433.45,109.7614 L431.274,109.7614 L430.255,106.7694 L425.479,106.7694 L424.441,109.7614 L422.453,109.7614 L426.906,97.1314 Z" id="Fill-48" fill="#AFAEB4" mask="url(#mask-2)"></path>
                <path d="M440.1035,107.8574 C442.9765,107.8574 444.3195,106.5994 444.3195,103.4204 C444.3195,100.3954 442.9595,99.1544 440.0695,99.1544 L438.4555,99.1544 L438.4555,107.8574 L440.1035,107.8574 Z M436.3305,97.1824 L439.9165,97.1824 C443.8605,97.1824 446.4445,99.0184 446.4445,103.4204 C446.4445,107.9094 443.8095,109.7614 439.9165,109.7614 L436.3305,109.7614 L436.3305,97.1824 Z" id="Fill-49" fill="#AFAEB4" mask="url(#mask-2)"></path>
                <path d="M449.6333,105.1719 L449.6333,97.1829 L451.7583,97.1829 L451.7583,104.9849 C451.7583,106.9059 452.5923,108.0449 454.5293,108.0449 C456.4493,108.0449 457.2833,106.9409 457.2833,105.0019 L457.2833,97.1829 L459.3733,97.1829 L459.3733,105.1549 C459.3733,108.0109 457.7583,109.9659 454.5123,109.9659 C451.0453,109.9659 449.6333,108.0279 449.6333,105.1719" id="Fill-50" fill="#AFAEB4" mask="url(#mask-2)"></path>
                <polygon id="Fill-51" fill="#AFAEB4" mask="url(#mask-2)" points="463.1704 97.1826 465.2954 97.1826 465.2954 107.8246 471.0924 107.8246 471.0924 109.7616 463.1704 109.7616"></polygon>
                <polygon id="Fill-52" fill="#AFAEB4" mask="url(#mask-2)" points="475.4185 99.1543 471.5435 99.1543 471.5435 97.1823 481.4185 97.1823 481.4185 99.1543 477.5435 99.1543 477.5435 109.7613 475.4185 109.7613"></polygon>
                <path d="M483.6685,106.8037 L485.3525,105.9197 C486.1005,107.3997 487.2565,108.1137 488.8185,108.1137 C490.3505,108.1137 491.3875,107.6197 491.3875,106.4817 C491.3875,105.3937 490.6045,104.8827 488.5295,104.2717 C486.1005,103.5577 484.1455,102.8947 484.1455,100.4977 C484.1455,98.3557 485.8955,96.9457 488.4455,96.9457 C490.9285,96.9457 492.3895,98.1687 493.1545,99.6477 L491.6075,100.7187 C490.8595,99.4607 489.7895,98.8827 488.4285,98.8827 C487.0355,98.8827 486.2365,99.3927 486.2365,100.3107 C486.2365,101.4837 487.1375,101.8747 489.1935,102.4867 C491.5725,103.1837 493.4775,103.9647 493.4775,106.3277 C493.4775,108.3847 491.7275,109.9997 488.7345,109.9997 C486.2365,109.9997 484.4675,108.7077 483.6685,106.8037" id="Fill-53" fill="#AFAEB4" mask="url(#mask-2)"></path>
                <polygon id="Fill-54" fill="#AFAEB4" mask="url(#mask-2)" points="502.149 109.762 504.495 109.762 504.495 107.552 502.149 107.552"></polygon>
            </g>
        </g>
    </g>
</svg>