<?xml version="1.0" encoding="UTF-8"?>
<svg width="324px" height="128px" viewBox="0 0 324 128" version="1.1" xmlns="http://www.w3.org/2000/svg" xmlns:xlink="http://www.w3.org/1999/xlink">
    <!-- Generator: Sketch 41.2 (35397) - http://www.bohemiancoding.com/sketch -->
    <title>Page 1</title>
    <desc>Created with Sketch.</desc>
    <defs></defs>
    <g id="Page-1" stroke="none" stroke-width="1" fill="none" fill-rule="evenodd">
        <g>
            <g id="Group-3" transform="translate(0.000000, 7.201607)" fill="#F8F8F8">
                <path d="M44.8463588,0.304993886 L273.943215,0.304993886 C278.070165,0.304993886 281.415465,3.65278428 281.415465,7.78218166 C281.415465,11.9120856 278.070165,15.2593694 273.943215,15.2593694 L234.616703,15.2593694 C234.616703,20.9930114 229.971353,25.6416227 224.241109,25.6416227 L211.760527,25.6416227 C208.369159,25.6416227 205.620221,28.3921904 205.620221,31.7850638 C205.620221,35.1784437 208.369159,37.9290114 211.760527,37.9290114 L248.987621,37.9290114 C253.175321,37.9290114 256.570234,41.3259371 256.570234,45.5161205 C256.570234,49.7063039 253.175321,53.1032297 248.987621,53.1032297 L235.29609,53.1032297 C232.231759,53.1032297 229.748096,55.5888716 229.748096,58.6545135 C229.748096,61.720662 232.231759,64.2057974 235.29609,64.2057974 L315.308903,64.2057974 C319.99374,64.2057974 323.792134,68.0064437 323.792134,72.6945659 C323.792134,77.3831948 319.99374,81.1833345 315.308903,81.1833345 L264.837296,81.1833345 C264.837296,88.9173432 258.570934,95.1874218 250.841509,95.1874218 L245.848871,95.1874218 L245.848871,115.4935 L74.5566525,115.4935 L74.829015,98.2875092 L69.5057963,98.2875092 C61.4847713,98.2875092 54.9824963,91.7813782 54.9824963,83.7561031 L8.8737525,83.7561031 C3.9732525,83.7561031 0.0002025,79.7806969 0.0002025,74.8767843 C0.0002025,69.9733782 3.9732525,65.9974655 8.8737525,65.9974655 L39.7165275,65.9974655 C43.2749588,65.9974655 46.1600775,63.1111424 46.1600775,59.5506009 C46.1600775,55.9900594 43.2749588,53.1032297 39.7165275,53.1032297 L25.0312275,53.1032297 C20.4365025,53.1032297 16.7120213,49.3765397 16.7120213,44.7785834 C16.7120213,40.1811336 20.4365025,36.4544437 25.0312275,36.4544437 L95.4683213,36.4544437 C98.8693088,36.4544437 101.626853,33.6952646 101.626853,30.2917537 C101.626853,26.8882428 98.8693088,24.1295703 95.4683213,24.1295703 L77.5764338,24.1295703 C70.8038212,24.1295703 65.3140463,18.6360332 65.3140463,11.8599109 L44.8463588,11.8599109 C41.65749,11.8599109 39.0725775,9.2734655 39.0725775,6.08270568 C39.0725775,2.8914393 41.65749,0.304993886 44.8463588,0.304993886" id="Fill-1"></path>
            </g>
            <path d="M292.187351,60.2261188 L271.876601,60.2261188 C267.74712,60.2261188 264.398783,56.8763022 264.398783,52.7438655 C264.398783,48.6119354 267.74712,45.2621188 271.876601,45.2621188 L292.187351,45.2621188 C296.316833,45.2621188 299.66517,48.6119354 299.66517,52.7438655 C299.66517,56.8763022 296.316833,60.2261188 292.187351,60.2261188" id="Fill-4" fill="#EDF0F4"></path>
            <path d="M43.4057231,117.681983 L23.0949731,117.681983 C18.9654919,117.681983 15.6176606,114.332166 15.6176606,110.199729 C15.6176606,106.067799 18.9654919,102.717983 23.0949731,102.717983 L43.4057231,102.717983 C47.5357106,102.717983 50.8835419,106.067799 50.8835419,110.199729 C50.8835419,114.332166 47.5357106,117.681983 43.4057231,117.681983" id="Fill-6" fill="#EDF0F4"></path>
            <path d="M46.6452169,38.7746795 L32.0636981,38.7746795 C28.7366231,38.7746795 26.0388169,36.0757799 26.0388169,32.7467319 C26.0388169,29.4171773 28.7366231,26.7182777 32.0636981,26.7182777 L46.6452169,26.7182777 C49.9722919,26.7182777 52.6695919,29.4171773 52.6695919,32.7467319 C52.6695919,36.0757799 49.9722919,38.7746795 46.6452169,38.7746795" id="Fill-8" fill="#EDF0F4"></path>
            <g id="41-Chair-Armchair-Lounge-Furniture-House-Interior" transform="translate(99.000000, 0.000000)">
                <polygon id="Fill-305" fill="#FFA9A9" points="23.4666667 96 2.13333333 96 2.13333333 49.9562667 7.82293333 44.8 23.4666667 44.8"></polygon>
                <polygon id="Fill-306" fill="#FFA9A9" points="104.533333 96 125.866667 96 125.866667 49.9562667 120.177067 44.8 104.533333 44.8"></polygon>
                <path d="M113.066667,104.533333 L14.9333333,104.533333 C12.5781333,104.533333 10.6666667,102.621867 10.6666667,100.266667 L10.6666667,70.4 C10.6666667,68.0448 12.5781333,66.1333333 14.9333333,66.1333333 L113.066667,66.1333333 C115.421867,66.1333333 117.333333,68.0448 117.333333,70.4 L117.333333,100.266667 C117.333333,102.621867 115.421867,104.533333 113.066667,104.533333 Z" id="Fill-307" fill="#FFC0C0"></path>
                <polygon id="Fill-309" fill="#FFA9A9" points="10.6666667 104.533333 117.333333 104.533333 117.333333 96 10.6666667 96"></polygon>
                <polygon id="Fill-311" fill="#FFD9D9" points="10.6666667 76.8 117.333333 76.8 117.333333 66.1333333 10.6666667 66.1333333"></polygon>
                <polygon id="Fill-312" fill="#FFC0C0" points="19.2 16.1770667 19.2 44.8 23.4666667 44.8 23.4666667 64 104.533333 64 104.533333 44.8 108.8 44.8 108.8 14.2229333 96.7104 2.13333333 30.0437333 2.13333333"></polygon>
                <polygon id="Fill-313" fill="#FFA9A9" points="27.7333333 125.866667 21.3333333 125.866667 23.4666667 104.533333 34.1333333 104.533333"></polygon>
                <polygon id="Fill-314" fill="#FFA9A9" points="102.4 125.866667 108.8 125.866667 106.666667 104.533333 96 104.533333"></polygon>
                <path d="M38.4,29.8666667 C40.7530667,29.8666667 42.6666667,27.9530667 42.6666667,25.6 C42.6666667,23.2469333 40.7530667,21.3333333 38.4,21.3333333 C36.0469333,21.3333333 34.1333333,23.2469333 34.1333333,25.6 C34.1333333,27.9530667 36.0469333,29.8666667 38.4,29.8666667" id="Fill-315" fill="#F07979"></path>
                <path d="M64,29.8666667 C66.3530667,29.8666667 68.2666667,27.9530667 68.2666667,25.6 C68.2666667,23.2469333 66.3530667,21.3333333 64,21.3333333 C61.6469333,21.3333333 59.7333333,23.2469333 59.7333333,25.6 C59.7333333,27.9530667 61.6469333,29.8666667 64,29.8666667" id="Fill-316" fill="#F07979"></path>
                <path d="M51.2,46.9333333 C53.5530667,46.9333333 55.4666667,45.0197333 55.4666667,42.6666667 C55.4666667,40.3136 53.5530667,38.4 51.2,38.4 C48.8469333,38.4 46.9333333,40.3136 46.9333333,42.6666667 C46.9333333,45.0197333 48.8469333,46.9333333 51.2,46.9333333" id="Fill-317" fill="#F07979"></path>
                <path d="M76.8,46.9333333 C79.1530667,46.9333333 81.0666667,45.0197333 81.0666667,42.6666667 C81.0666667,40.3136 79.1530667,38.4 76.8,38.4 C74.4469333,38.4 72.5333333,40.3136 72.5333333,42.6666667 C72.5333333,45.0197333 74.4469333,46.9333333 76.8,46.9333333" id="Fill-318" fill="#F07979"></path>
                <path d="M89.6,29.8666667 C91.9530667,29.8666667 93.8666667,27.9530667 93.8666667,25.6 C93.8666667,23.2469333 91.9530667,21.3333333 89.6,21.3333333 C87.2469333,21.3333333 85.3333333,23.2469333 85.3333333,25.6 C85.3333333,27.9530667 87.2469333,29.8666667 89.6,29.8666667" id="Fill-319" fill="#F07979"></path>
                <path d="M108.8,93.8666667 L100.266667,93.8666667 C99.0890667,93.8666667 98.1333333,94.8202667 98.1333333,96 C98.1333333,97.1797333 99.0890667,98.1333333 100.266667,98.1333333 L108.8,98.1333333 C109.9776,98.1333333 110.933333,97.1797333 110.933333,96 C110.933333,94.8202667 109.9776,93.8666667 108.8,93.8666667" id="Fill-320" fill="#F07979"></path>
                <path d="M21.3333333,72.5333333 C20.1557333,72.5333333 19.2,73.4869333 19.2,74.6666667 L19.2,78.9333333 C19.2,80.1130667 20.1557333,81.0666667 21.3333333,81.0666667 C22.5109333,81.0666667 23.4666667,80.1130667 23.4666667,78.9333333 L23.4666667,74.6666667 C23.4666667,73.4869333 22.5109333,72.5333333 21.3333333,72.5333333" id="Fill-321" fill="#F07979"></path>
                <path d="M32,72.5333333 C30.8224,72.5333333 29.8666667,73.4869333 29.8666667,74.6666667 L29.8666667,78.9333333 C29.8666667,80.1130667 30.8224,81.0666667 32,81.0666667 C33.1776,81.0666667 34.1333333,80.1130667 34.1333333,78.9333333 L34.1333333,74.6666667 C34.1333333,73.4869333 33.1776,72.5333333 32,72.5333333" id="Fill-322" fill="#F07979"></path>
                <path d="M42.6666667,72.5333333 C41.4890667,72.5333333 40.5333333,73.4869333 40.5333333,74.6666667 L40.5333333,78.9333333 C40.5333333,80.1130667 41.4890667,81.0666667 42.6666667,81.0666667 C43.8442667,81.0666667 44.8,80.1130667 44.8,78.9333333 L44.8,74.6666667 C44.8,73.4869333 43.8442667,72.5333333 42.6666667,72.5333333" id="Fill-323" fill="#F07979"></path>
                <path d="M53.3333333,72.5333333 C52.1557333,72.5333333 51.2,73.4869333 51.2,74.6666667 L51.2,78.9333333 C51.2,80.1130667 52.1557333,81.0666667 53.3333333,81.0666667 C54.5109333,81.0666667 55.4666667,80.1130667 55.4666667,78.9333333 L55.4666667,74.6666667 C55.4666667,73.4869333 54.5109333,72.5333333 53.3333333,72.5333333" id="Fill-324" fill="#F07979"></path>
                <path d="M64,72.5333333 C62.8224,72.5333333 61.8666667,73.4869333 61.8666667,74.6666667 L61.8666667,78.9333333 C61.8666667,80.1130667 62.8224,81.0666667 64,81.0666667 C65.1776,81.0666667 66.1333333,80.1130667 66.1333333,78.9333333 L66.1333333,74.6666667 C66.1333333,73.4869333 65.1776,72.5333333 64,72.5333333" id="Fill-325" fill="#F07979"></path>
                <path d="M74.6666667,72.5333333 C73.4890667,72.5333333 72.5333333,73.4869333 72.5333333,74.6666667 L72.5333333,78.9333333 C72.5333333,80.1130667 73.4890667,81.0666667 74.6666667,81.0666667 C75.8442667,81.0666667 76.8,80.1130667 76.8,78.9333333 L76.8,74.6666667 C76.8,73.4869333 75.8442667,72.5333333 74.6666667,72.5333333" id="Fill-326" fill="#F07979"></path>
                <path d="M85.3333333,72.5333333 C84.1557333,72.5333333 83.2,73.4869333 83.2,74.6666667 L83.2,78.9333333 C83.2,80.1130667 84.1557333,81.0666667 85.3333333,81.0666667 C86.5109333,81.0666667 87.4666667,80.1130667 87.4666667,78.9333333 L87.4666667,74.6666667 C87.4666667,73.4869333 86.5109333,72.5333333 85.3333333,72.5333333" id="Fill-327" fill="#F07979"></path>
                <path d="M98.1333333,74.6666667 C98.1333333,73.4869333 97.1776,72.5333333 96,72.5333333 C94.8224,72.5333333 93.8666667,73.4869333 93.8666667,74.6666667 L93.8666667,78.9333333 C93.8666667,80.1130667 94.8224,81.0666667 96,81.0666667 C97.1776,81.0666667 98.1333333,80.1130667 98.1333333,78.9333333 L98.1333333,74.6666667 Z" id="Fill-328" fill="#F07979"></path>
                <path d="M106.666667,81.0666667 C107.844267,81.0666667 108.8,80.1130667 108.8,78.9333333 L108.8,74.6666667 C108.8,73.4869333 107.844267,72.5333333 106.666667,72.5333333 C105.489067,72.5333333 104.533333,73.4869333 104.533333,74.6666667 L104.533333,78.9333333 C104.533333,80.1130667 105.489067,81.0666667 106.666667,81.0666667" id="Fill-329" fill="#F07979"></path>
                <path d="M123.733333,91.7333333 C123.733333,92.9109333 122.775467,93.8666667 121.6,93.8666667 L119.466667,93.8666667 L119.466667,70.4 C119.466667,66.8714667 116.5952,64 113.066667,64 L106.666667,64 L106.666667,49.0666667 C106.666667,47.8890667 107.624533,46.9333333 108.8,46.9333333 L117.333333,46.9333333 C120.861867,46.9333333 123.733333,49.8048 123.733333,53.3333333 L123.733333,91.7333333 Z M115.2,100.266667 C115.2,101.444267 114.242133,102.4 113.066667,102.4 L108.597333,102.4 L93.1328,102.4 L37.0005333,102.4 L21.536,102.4 L14.9333333,102.4 C13.7578667,102.4 12.8,101.444267 12.8,100.266667 L12.8,98.1333333 L91.7333333,98.1333333 C92.9109333,98.1333333 93.8666667,97.1797333 93.8666667,96 C93.8666667,94.8202667 92.9109333,93.8666667 91.7333333,93.8666667 L12.8,93.8666667 L12.8,70.4 C12.8,69.2224 13.7578667,68.2666667 14.9333333,68.2666667 L113.066667,68.2666667 C114.242133,68.2666667 115.2,69.2224 115.2,70.4 L115.2,100.266667 Z M106.2976,122.2784 C106.3488,122.788267 106.109867,123.136 105.962667,123.298133 C105.815467,123.460267 105.493333,123.733333 104.9728,123.733333 C104.392533,123.733333 103.869867,123.345067 103.7056,122.792533 L98.8672,106.666667 L104.736,106.666667 L106.2976,122.2784 Z M26.4298667,122.7904 C26.2634667,123.345067 25.7408,123.733333 25.152,123.733333 C24.64,123.733333 24.3178667,123.460267 24.1706667,123.298133 C24.0234667,123.136 23.7845333,122.788267 23.8357333,122.2784 L25.3973333,106.666667 L31.2661333,106.666667 L26.4298667,122.7904 Z M4.26666667,91.7333333 L4.26666667,53.3333333 C4.26666667,49.8048 7.13813333,46.9333333 10.6666667,46.9333333 L19.2,46.9333333 C20.3754667,46.9333333 21.3333333,47.8890667 21.3333333,49.0666667 L21.3333333,64 L14.9333333,64 C11.4048,64 8.53333333,66.8714667 8.53333333,70.4 L8.53333333,93.8666667 L6.4,93.8666667 C5.22453333,93.8666667 4.26666667,92.9109333 4.26666667,91.7333333 L4.26666667,91.7333333 Z M36.2666667,4.26666667 L91.7333333,4.26666667 C99.968,4.26666667 106.666667,10.9674667 106.666667,19.2 L106.666667,43.0613333 C104.187733,43.9445333 102.4,46.2890667 102.4,49.0666667 L102.4,64 L25.6,64 L25.6,49.0666667 C25.6,46.2890667 23.8122667,43.9445333 21.3333333,43.0613333 L21.3333333,19.2 C21.3333333,10.9674667 28.032,4.26666667 36.2666667,4.26666667 L36.2666667,4.26666667 Z M117.333333,42.6666667 L110.933333,42.6666667 L110.933333,19.2 C110.933333,8.61226667 102.318933,0 91.7333333,0 L36.2666667,0 C25.6810667,0 17.0666667,8.61226667 17.0666667,19.2 L17.0666667,42.6666667 L10.6666667,42.6666667 C4.78506667,42.6666667 0,47.4517333 0,53.3333333 L0,91.7333333 C0,95.2618667 2.87146667,98.1333333 6.4,98.1333333 L8.53333333,98.1333333 L8.53333333,100.266667 C8.53333333,103.7952 11.4048,106.666667 14.9333333,106.666667 L21.1093333,106.666667 L19.5904,121.853867 C19.4325333,123.421867 19.9509333,124.992 21.0069333,126.161067 C22.0650667,127.330133 23.5754667,128 25.1605333,128 C27.648,128 29.8005333,126.4 30.5152,124.017067 L35.7205333,106.666667 L94.4128,106.666667 L99.6181333,124.017067 C100.3328,126.4 102.485333,128 104.981333,128 C106.557867,128 108.068267,127.330133 109.1264,126.161067 C110.1824,124.992 110.7008,123.421867 110.542933,121.853867 L109.024,106.666667 L113.066667,106.666667 C116.5952,106.666667 119.466667,103.7952 119.466667,100.266667 L119.466667,98.1333333 L121.6,98.1333333 C125.128533,98.1333333 128,95.2618667 128,91.7333333 L128,53.3333333 C128,47.4517333 123.214933,42.6666667 117.333333,42.6666667 L117.333333,42.6666667 Z" id="Fill-330" fill="#F07979"></path>
                <path d="M93.8666667,10.6666667 L93.8666667,10.6666667 C93.8666667,11.8464 92.9109333,12.8 91.7333333,12.8 L36.2666667,12.8 C35.0890667,12.8 34.1333333,11.8464 34.1333333,10.6666667 C34.1333333,9.48693333 35.0890667,8.53333333 36.2666667,8.53333333 L91.7333333,8.53333333 C92.9109333,8.53333333 93.8666667,9.48693333 93.8666667,10.6666667" id="Fill-331" fill="#FFD9D9"></path>
            </g>
        </g>
    </g>
</svg>