<?xml version="1.0" encoding="UTF-8"?>
<svg width="324px" height="138px" viewBox="0 0 324 138" version="1.1" xmlns="http://www.w3.org/2000/svg" xmlns:xlink="http://www.w3.org/1999/xlink">
    <!-- Generator: Sketch 41.2 (35397) - http://www.bohemiancoding.com/sketch -->
    <title>Page 1</title>
    <desc>Created with Sketch.</desc>
    <defs></defs>
    <g id="Page-1" stroke="none" stroke-width="1" fill="none" fill-rule="evenodd">
        <g>
            <g id="Group-3" transform="translate(0.000000, 21.201607)" fill="#F8F8F8">
                <path d="M44.8463588,0.304993886 L273.943215,0.304993886 C278.070165,0.304993886 281.415465,3.65278428 281.415465,7.78218166 C281.415465,11.9120856 278.070165,15.2593694 273.943215,15.2593694 L234.616703,15.2593694 C234.616703,20.9930114 229.971353,25.6416227 224.241109,25.6416227 L211.760527,25.6416227 C208.369159,25.6416227 205.620221,28.3921904 205.620221,31.7850638 C205.620221,35.1784437 208.369159,37.9290114 211.760527,37.9290114 L248.987621,37.9290114 C253.175321,37.9290114 256.570234,41.3259371 256.570234,45.5161205 C256.570234,49.7063039 253.175321,53.1032297 248.987621,53.1032297 L235.29609,53.1032297 C232.231759,53.1032297 229.748096,55.5888716 229.748096,58.6545135 C229.748096,61.720662 232.231759,64.2057974 235.29609,64.2057974 L315.308903,64.2057974 C319.99374,64.2057974 323.792134,68.0064437 323.792134,72.6945659 C323.792134,77.3831948 319.99374,81.1833345 315.308903,81.1833345 L264.837296,81.1833345 C264.837296,88.9173432 258.570934,95.1874218 250.841509,95.1874218 L245.848871,95.1874218 L245.848871,115.4935 L74.5566525,115.4935 L74.829015,98.2875092 L69.5057963,98.2875092 C61.4847713,98.2875092 54.9824963,91.7813782 54.9824963,83.7561031 L8.8737525,83.7561031 C3.9732525,83.7561031 0.0002025,79.7806969 0.0002025,74.8767843 C0.0002025,69.9733782 3.9732525,65.9974655 8.8737525,65.9974655 L39.7165275,65.9974655 C43.2749588,65.9974655 46.1600775,63.1111424 46.1600775,59.5506009 C46.1600775,55.9900594 43.2749588,53.1032297 39.7165275,53.1032297 L25.0312275,53.1032297 C20.4365025,53.1032297 16.7120213,49.3765397 16.7120213,44.7785834 C16.7120213,40.1811336 20.4365025,36.4544437 25.0312275,36.4544437 L95.4683213,36.4544437 C98.8693088,36.4544437 101.626853,33.6952646 101.626853,30.2917537 C101.626853,26.8882428 98.8693088,24.1295703 95.4683213,24.1295703 L77.5764338,24.1295703 C70.8038212,24.1295703 65.3140463,18.6360332 65.3140463,11.8599109 L44.8463588,11.8599109 C41.65749,11.8599109 39.0725775,9.2734655 39.0725775,6.08270568 C39.0725775,2.8914393 41.65749,0.304993886 44.8463588,0.304993886" id="Fill-1"></path>
            </g>
            <path d="M292.187351,74.2261188 L271.876601,74.2261188 C267.74712,74.2261188 264.398783,70.8763022 264.398783,66.7438655 C264.398783,62.6119354 267.74712,59.2621188 271.876601,59.2621188 L292.187351,59.2621188 C296.316833,59.2621188 299.66517,62.6119354 299.66517,66.7438655 C299.66517,70.8763022 296.316833,74.2261188 292.187351,74.2261188" id="Fill-4" fill="#EDF0F4"></path>
            <path d="M43.4057231,131.681983 L23.0949731,131.681983 C18.9654919,131.681983 15.6176606,128.332166 15.6176606,124.199729 C15.6176606,120.067799 18.9654919,116.717983 23.0949731,116.717983 L43.4057231,116.717983 C47.5357106,116.717983 50.8835419,120.067799 50.8835419,124.199729 C50.8835419,128.332166 47.5357106,131.681983 43.4057231,131.681983" id="Fill-6" fill="#EDF0F4"></path>
            <path d="M46.6452169,52.7746795 L32.0636981,52.7746795 C28.7366231,52.7746795 26.0388169,50.0757799 26.0388169,46.7467319 C26.0388169,43.4171773 28.7366231,40.7182777 32.0636981,40.7182777 L46.6452169,40.7182777 C49.9722919,40.7182777 52.6695919,43.4171773 52.6695919,46.7467319 C52.6695919,50.0757799 49.9722919,52.7746795 46.6452169,52.7746795" id="Fill-8" fill="#EDF0F4"></path>
            <g id="19-Office-Home-Building-Work-House" transform="translate(104.000000, 0.000000)">
                <g id="Layer_1">
                    <path d="M89.8571429,135.578947 L123.857143,135.578947 L123.857143,72.6315789 L104.428571,72.6315789 L104.428571,65.3684211 C104.428571,64.0313106 103.341263,62.9473684 102,62.9473684 L89.8571429,62.9473684 L89.8571429,135.578947 Z" id="Shape" fill="#FFD9D9"></path>
                    <rect id="Rectangle-path" fill="#FFC0C0" x="89.8571429" y="106.526316" width="34" height="29.0526316"></rect>
                    <rect id="Rectangle-path" fill="#FFC0C0" x="12.1428571" y="43.5789474" width="77.7142857" height="92"></rect>
                    <rect id="Rectangle-path" fill="#FFA9A9" x="12.1428571" y="101.684211" width="77.7142857" height="33.8947368"></rect>
                    <rect id="Rectangle-path" fill="#FFF0F0" x="26.7142857" y="116.210526" width="19.4285714" height="19.3684211"></rect>
                    <rect id="Rectangle-path" fill="#FFD9D9" x="7.28571429" y="33.8947368" width="87.4285714" height="9.68421053" rx="2"></rect>
                    <polygon id="Shape" fill="#FFA9A9" points="87.4285714 33.8947368 12.1428571 33.8947368 21.8571429 19.3684211 80.1428571 19.3684211"></polygon>
                    <path d="M31.5714286,70.2105263 L26.7142857,70.2105263 C25.3730228,70.2105263 24.2857143,71.2944685 24.2857143,72.6315789 C24.2857143,73.9686894 25.3730228,75.0526316 26.7142857,75.0526316 L31.5714286,75.0526316 C32.9126915,75.0526316 34,73.9686894 34,72.6315789 C34,71.2944685 32.9126915,70.2105263 31.5714286,70.2105263 Z" id="Shape" fill="#F07979"></path>
                    <path d="M31.5714286,50.8421053 L26.7142857,50.8421053 C25.3730228,50.8421053 24.2857143,51.9260474 24.2857143,53.2631579 C24.2857143,54.6002683 25.3730228,55.6842105 26.7142857,55.6842105 L31.5714286,55.6842105 C32.9126915,55.6842105 34,54.6002683 34,53.2631579 C34,51.9260474 32.9126915,50.8421053 31.5714286,50.8421053 Z" id="Shape" fill="#F07979"></path>
                    <path d="M31.5714286,60.5263158 L26.7142857,60.5263158 C25.3730228,60.5263158 24.2857143,61.610258 24.2857143,62.9473684 C24.2857143,64.2844789 25.3730228,65.3684211 26.7142857,65.3684211 L31.5714286,65.3684211 C32.9126915,65.3684211 34,64.2844789 34,62.9473684 C34,61.610258 32.9126915,60.5263158 31.5714286,60.5263158 Z" id="Shape" fill="#F07979"></path>
                    <path d="M46.1428571,70.2105263 L41.2857143,70.2105263 C39.9444513,70.2105263 38.8571429,71.2944685 38.8571429,72.6315789 C38.8571429,73.9686894 39.9444513,75.0526316 41.2857143,75.0526316 L46.1428571,75.0526316 C47.4841201,75.0526316 48.5714286,73.9686894 48.5714286,72.6315789 C48.5714286,71.2944685 47.4841201,70.2105263 46.1428571,70.2105263 Z" id="Shape" fill="#F07979"></path>
                    <path d="M111.714286,118.631579 L106.857143,118.631579 C105.51588,118.631579 104.428571,119.715521 104.428571,121.052632 C104.428571,122.389742 105.51588,123.473684 106.857143,123.473684 L111.714286,123.473684 C113.055549,123.473684 114.142857,122.389742 114.142857,121.052632 C114.142857,119.715521 113.055549,118.631579 111.714286,118.631579 Z" id="Shape" fill="#F07979"></path>
                    <path d="M46.1428571,50.8421053 L41.2857143,50.8421053 C39.9444513,50.8421053 38.8571429,51.9260474 38.8571429,53.2631579 C38.8571429,54.6002683 39.9444513,55.6842105 41.2857143,55.6842105 L46.1428571,55.6842105 C47.4841201,55.6842105 48.5714286,54.6002683 48.5714286,53.2631579 C48.5714286,51.9260474 47.4841201,50.8421053 46.1428571,50.8421053 Z" id="Shape" fill="#F07979"></path>
                    <path d="M46.1428571,60.5263158 L41.2857143,60.5263158 C39.9444513,60.5263158 38.8571429,61.610258 38.8571429,62.9473684 C38.8571429,64.2844789 39.9444513,65.3684211 41.2857143,65.3684211 L46.1428571,65.3684211 C47.4841201,65.3684211 48.5714286,64.2844789 48.5714286,62.9473684 C48.5714286,61.610258 47.4841201,60.5263158 46.1428571,60.5263158 Z" id="Shape" fill="#F07979"></path>
                    <path d="M60.7142857,70.2105263 L55.8571429,70.2105263 C54.5158799,70.2105263 53.4285714,71.2944685 53.4285714,72.6315789 C53.4285714,73.9686894 54.5158799,75.0526316 55.8571429,75.0526316 L60.7142857,75.0526316 C62.0555487,75.0526316 63.1428571,73.9686894 63.1428571,72.6315789 C63.1428571,71.2944685 62.0555487,70.2105263 60.7142857,70.2105263 Z" id="Shape" fill="#F07979"></path>
                    <path d="M60.7142857,50.8421053 L55.8571429,50.8421053 C54.5158799,50.8421053 53.4285714,51.9260474 53.4285714,53.2631579 C53.4285714,54.6002683 54.5158799,55.6842105 55.8571429,55.6842105 L60.7142857,55.6842105 C62.0555487,55.6842105 63.1428571,54.6002683 63.1428571,53.2631579 C63.1428571,51.9260474 62.0555487,50.8421053 60.7142857,50.8421053 Z" id="Shape" fill="#F07979"></path>
                    <path d="M60.7142857,60.5263158 L55.8571429,60.5263158 C54.5158799,60.5263158 53.4285714,61.610258 53.4285714,62.9473684 C53.4285714,64.2844789 54.5158799,65.3684211 55.8571429,65.3684211 L60.7142857,65.3684211 C62.0555487,65.3684211 63.1428571,64.2844789 63.1428571,62.9473684 C63.1428571,61.610258 62.0555487,60.5263158 60.7142857,60.5263158 Z" id="Shape" fill="#F07979"></path>
                    <path d="M70.4285714,75.0526316 L75.2857143,75.0526316 C76.6269772,75.0526316 77.7142857,73.9686894 77.7142857,72.6315789 C77.7142857,71.2944685 76.6269772,70.2105263 75.2857143,70.2105263 L70.4285714,70.2105263 C69.0873085,70.2105263 68,71.2944685 68,72.6315789 C68,73.9686894 69.0873085,75.0526316 70.4285714,75.0526316 Z" id="Shape" fill="#F07979"></path>
                    <path d="M70.4285714,55.6842105 L75.2857143,55.6842105 C76.6269772,55.6842105 77.7142857,54.6002683 77.7142857,53.2631579 C77.7142857,51.9260474 76.6269772,50.8421053 75.2857143,50.8421053 L70.4285714,50.8421053 C69.0873085,50.8421053 68,51.9260474 68,53.2631579 C68,54.6002683 69.0873085,55.6842105 70.4285714,55.6842105 Z" id="Shape" fill="#F07979"></path>
                    <path d="M70.4285714,65.3684211 L75.2857143,65.3684211 C76.6269772,65.3684211 77.7142857,64.2844789 77.7142857,62.9473684 C77.7142857,61.610258 76.6269772,60.5263158 75.2857143,60.5263158 L70.4285714,60.5263158 C69.0873085,60.5263158 68,61.610258 68,62.9473684 C68,64.2844789 69.0873085,65.3684211 70.4285714,65.3684211 Z" id="Shape" fill="#F07979"></path>
                    <path d="M60.7142857,118.631579 L55.8571429,118.631579 C54.5158799,118.631579 53.4285714,119.715521 53.4285714,121.052632 C53.4285714,122.389742 54.5158799,123.473684 55.8571429,123.473684 L60.7142857,123.473684 C62.0555487,123.473684 63.1428571,122.389742 63.1428571,121.052632 C63.1428571,119.715521 62.0555487,118.631579 60.7142857,118.631579 Z" id="Shape" fill="#F07979"></path>
                    <path d="M60.7142857,99.2631579 L55.8571429,99.2631579 C54.5158799,99.2631579 53.4285714,100.3471 53.4285714,101.684211 C53.4285714,103.021321 54.5158799,104.105263 55.8571429,104.105263 L60.7142857,104.105263 C62.0555487,104.105263 63.1428571,103.021321 63.1428571,101.684211 C63.1428571,100.3471 62.0555487,99.2631579 60.7142857,99.2631579 Z" id="Shape" fill="#F07979"></path>
                    <path d="M60.7142857,108.947368 L55.8571429,108.947368 C54.5158799,108.947368 53.4285714,110.031311 53.4285714,111.368421 C53.4285714,112.705531 54.5158799,113.789474 55.8571429,113.789474 L60.7142857,113.789474 C62.0555487,113.789474 63.1428571,112.705531 63.1428571,111.368421 C63.1428571,110.031311 62.0555487,108.947368 60.7142857,108.947368 Z" id="Shape" fill="#F07979"></path>
                    <path d="M75.2857143,118.631579 L70.4285714,118.631579 C69.0873085,118.631579 68,119.715521 68,121.052632 C68,122.389742 69.0873085,123.473684 70.4285714,123.473684 L75.2857143,123.473684 C76.6269772,123.473684 77.7142857,122.389742 77.7142857,121.052632 C77.7142857,119.715521 76.6269772,118.631579 75.2857143,118.631579 Z" id="Shape" fill="#F07979"></path>
                    <path d="M75.2857143,99.2631579 L70.4285714,99.2631579 C69.0873085,99.2631579 68,100.3471 68,101.684211 C68,103.021321 69.0873085,104.105263 70.4285714,104.105263 L75.2857143,104.105263 C76.6269772,104.105263 77.7142857,103.021321 77.7142857,101.684211 C77.7142857,100.3471 76.6269772,99.2631579 75.2857143,99.2631579 Z" id="Shape" fill="#F07979"></path>
                    <path d="M31.5714286,99.2631579 L26.7142857,99.2631579 C25.3730228,99.2631579 24.2857143,100.3471 24.2857143,101.684211 C24.2857143,103.021321 25.3730228,104.105263 26.7142857,104.105263 L31.5714286,104.105263 C32.9126915,104.105263 34,103.021321 34,101.684211 C34,100.3471 32.9126915,99.2631579 31.5714286,99.2631579 Z" id="Shape" fill="#F07979"></path>
                    <path d="M46.1428571,99.2631579 L41.2857143,99.2631579 C39.9444513,99.2631579 38.8571429,100.3471 38.8571429,101.684211 C38.8571429,103.021321 39.9444513,104.105263 41.2857143,104.105263 L46.1428571,104.105263 C47.4841201,104.105263 48.5714286,103.021321 48.5714286,101.684211 C48.5714286,100.3471 47.4841201,99.2631579 46.1428571,99.2631579 Z" id="Shape" fill="#F07979"></path>
                    <path d="M75.2857143,108.947368 L70.4285714,108.947368 C69.0873085,108.947368 68,110.031311 68,111.368421 C68,112.705531 69.0873085,113.789474 70.4285714,113.789474 L75.2857143,113.789474 C76.6269772,113.789474 77.7142857,112.705531 77.7142857,111.368421 C77.7142857,110.031311 76.6269772,108.947368 75.2857143,108.947368 Z" id="Shape" fill="#F07979"></path>
                    <path d="M102,94.4210526 L106.857143,94.4210526 C108.198406,94.4210526 109.285714,93.3371104 109.285714,92 C109.285714,90.6628896 108.198406,89.5789474 106.857143,89.5789474 L102,89.5789474 C100.658737,89.5789474 99.5714286,90.6628896 99.5714286,92 C99.5714286,93.3371104 100.658737,94.4210526 102,94.4210526 Z" id="Shape" fill="#F07979"></path>
                    <path d="M102,84.7368421 L106.857143,84.7368421 C108.198406,84.7368421 109.285714,83.6528999 109.285714,82.3157895 C109.285714,80.978679 108.198406,79.8947368 106.857143,79.8947368 L102,79.8947368 C100.658737,79.8947368 99.5714286,80.978679 99.5714286,82.3157895 C99.5714286,83.6528999 100.658737,84.7368421 102,84.7368421 Z" id="Shape" fill="#F07979"></path>
                    <path d="M80.1428571,84.7368421 L70.4285714,84.7368421 C69.0873085,84.7368421 68,85.8207843 68,87.1578947 C68,88.4950052 69.0873085,89.5789474 70.4285714,89.5789474 L80.1428571,89.5789474 C81.4841201,89.5789474 82.5714286,88.4950052 82.5714286,87.1578947 C82.5714286,85.8207843 81.4841201,84.7368421 80.1428571,84.7368421 Z" id="Shape" fill="#F07979"></path>
                    <path d="M133.571429,133.157895 L126.285714,133.157895 L126.285714,75.0526316 L128.714286,75.0526316 C130.055549,75.0526316 131.142857,73.9686894 131.142857,72.6315789 C131.142857,71.2944685 130.055549,70.2105263 128.714286,70.2105263 L106.857143,70.2105263 L106.857143,65.3684211 C106.857143,62.6942002 104.682526,60.5263158 102,60.5263158 L92.2857143,60.5263158 L92.2857143,45.5642105 C95.353662,44.4526162 97.3055069,41.4423845 97.0624943,38.1972243 C96.8194817,34.9520641 94.4409302,32.2641077 91.2414286,31.6189474 L83.6157143,20.1915789 C82.2649146,18.1644487 79.9854901,16.9464598 77.5442857,16.9473684 L48.5714286,16.9473684 L48.5714286,14.6715789 C48.5714286,13.3344685 47.4841201,12.2505263 46.1428571,12.2505263 C44.8015942,12.2505263 43.7142857,13.3344685 43.7142857,14.6715789 L43.7142857,16.9473684 L38.8571429,16.9473684 L38.8571429,2.56631579 C38.8571429,1.22920534 37.7698344,0.145263158 36.4285714,0.145263158 C35.0873085,0.145263158 34,1.22920534 34,2.56631579 L34,16.9473684 L24.4557143,16.9473684 C22.0145099,16.9464598 19.7350854,18.1644487 18.3842857,20.1915789 L10.7342857,31.6189474 C7.53740093,32.2708133 5.1651568,34.9622194 4.92785441,38.2065765 C4.69055202,41.4509336 6.64607048,44.4569287 9.71428571,45.5642105 L9.71428571,133.157895 L2.42857143,133.157895 C1.08730846,133.157895 0,134.241837 0,135.578947 C0,136.916058 1.08730846,138 2.42857143,138 L133.571429,138 C134.912692,138 136,136.916058 136,135.578947 C136,134.241837 134.912692,133.157895 133.571429,133.157895 Z M89.8571429,41.1578947 L12.1428571,41.1578947 C10.8015942,41.1578947 9.71428571,40.0739526 9.71428571,38.7368421 C9.71428571,37.3997317 10.8015942,36.3157895 12.1428571,36.3157895 L89.8571429,36.3157895 C91.1984058,36.3157895 92.2857143,37.3997317 92.2857143,38.7368421 C92.2857143,40.0739526 91.1984058,41.1578947 89.8571429,41.1578947 Z M22.44,22.8789474 C22.886817,22.2025411 23.6433108,21.7936637 24.4557143,21.7894737 L34,21.7894737 L34,26.7768421 C34,28.1139526 35.0873085,29.1978947 36.4285714,29.1978947 C37.7698344,29.1978947 38.8571429,28.1139526 38.8571429,26.7768421 L38.8571429,21.7894737 L43.7142857,21.7894737 L43.7142857,26.7768421 C43.7142857,28.1139526 44.8015942,29.1978947 46.1428571,29.1978947 C47.4841201,29.1978947 48.5714286,28.1139526 48.5714286,26.7768421 L48.5714286,21.7894737 L77.5442857,21.7894737 C78.3566892,21.7936637 79.113183,22.2025411 79.56,22.8789474 L85.3157143,31.4736842 L16.6842857,31.4736842 L22.44,22.8789474 Z M29.1428571,118.631579 L43.7142857,118.631579 L43.7142857,133.157895 L29.1428571,133.157895 L29.1428571,118.631579 Z M48.5714286,133.157895 L48.5714286,133.157895 L48.5714286,118.631579 C48.5714286,115.957358 46.3968116,113.789474 43.7142857,113.789474 L29.1428571,113.789474 C26.4603312,113.789474 24.2857143,115.957358 24.2857143,118.631579 L24.2857143,133.157895 L24.2857143,133.157895 L14.5714286,133.157895 L14.5714286,89.5789474 L60.7142857,89.5789474 C62.0555487,89.5789474 63.1428571,88.4950052 63.1428571,87.1578947 C63.1428571,85.8207843 62.0555487,84.7368421 60.7142857,84.7368421 L14.5714286,84.7368421 L14.5714286,46 L87.4285714,46 L87.4285714,133.157895 L48.5714286,133.157895 Z M92.2857143,65.3684211 L102,65.3684211 L102,72.6315789 C102,73.9686894 103.087308,75.0526316 104.428571,75.0526316 L121.428571,75.0526316 L121.428571,104.105263 L97.1428571,104.105263 C95.8015942,104.105263 94.7142857,105.189205 94.7142857,106.526316 C94.7142857,107.863426 95.8015942,108.947368 97.1428571,108.947368 L121.428571,108.947368 L121.428571,133.157895 L92.2857143,133.157895 L92.2857143,65.3684211 Z" id="Shape" fill="#F07979"></path>
                </g>
            </g>
        </g>
    </g>
</svg>