<?xml version="1.0" encoding="UTF-8"?>
<svg width="324px" height="118px" viewBox="0 0 324 118" version="1.1" xmlns="http://www.w3.org/2000/svg" xmlns:xlink="http://www.w3.org/1999/xlink">
    <!-- Generator: Sketch 41.2 (35397) - http://www.bohemiancoding.com/sketch -->
    <title>Page 1</title>
    <desc>Created with Sketch.</desc>
    <defs></defs>
    <g id="Page-1" stroke="none" stroke-width="1" fill="none" fill-rule="evenodd">
        <g>
            <g id="Group-3" transform="translate(0.000000, 2.201607)" fill="#F8F8F8">
                <path d="M44.8463588,0.304993886 L273.943215,0.304993886 C278.070165,0.304993886 281.415465,3.65278428 281.415465,7.78218166 C281.415465,11.9120856 278.070165,15.2593694 273.943215,15.2593694 L234.616703,15.2593694 C234.616703,20.9930114 229.971353,25.6416227 224.241109,25.6416227 L211.760527,25.6416227 C208.369159,25.6416227 205.620221,28.3921904 205.620221,31.7850638 C205.620221,35.1784437 208.369159,37.9290114 211.760527,37.9290114 L248.987621,37.9290114 C253.175321,37.9290114 256.570234,41.3259371 256.570234,45.5161205 C256.570234,49.7063039 253.175321,53.1032297 248.987621,53.1032297 L235.29609,53.1032297 C232.231759,53.1032297 229.748096,55.5888716 229.748096,58.6545135 C229.748096,61.720662 232.231759,64.2057974 235.29609,64.2057974 L315.308903,64.2057974 C319.99374,64.2057974 323.792134,68.0064437 323.792134,72.6945659 C323.792134,77.3831948 319.99374,81.1833345 315.308903,81.1833345 L264.837296,81.1833345 C264.837296,88.9173432 258.570934,95.1874218 250.841509,95.1874218 L245.848871,95.1874218 L245.848871,115.4935 L74.5566525,115.4935 L74.829015,98.2875092 L69.5057963,98.2875092 C61.4847713,98.2875092 54.9824963,91.7813782 54.9824963,83.7561031 L8.8737525,83.7561031 C3.9732525,83.7561031 0.0002025,79.7806969 0.0002025,74.8767843 C0.0002025,69.9733782 3.9732525,65.9974655 8.8737525,65.9974655 L39.7165275,65.9974655 C43.2749588,65.9974655 46.1600775,63.1111424 46.1600775,59.5506009 C46.1600775,55.9900594 43.2749588,53.1032297 39.7165275,53.1032297 L25.0312275,53.1032297 C20.4365025,53.1032297 16.7120213,49.3765397 16.7120213,44.7785834 C16.7120213,40.1811336 20.4365025,36.4544437 25.0312275,36.4544437 L95.4683213,36.4544437 C98.8693088,36.4544437 101.626853,33.6952646 101.626853,30.2917537 C101.626853,26.8882428 98.8693088,24.1295703 95.4683213,24.1295703 L77.5764338,24.1295703 C70.8038212,24.1295703 65.3140463,18.6360332 65.3140463,11.8599109 L44.8463588,11.8599109 C41.65749,11.8599109 39.0725775,9.2734655 39.0725775,6.08270568 C39.0725775,2.8914393 41.65749,0.304993886 44.8463588,0.304993886" id="Fill-1"></path>
            </g>
            <path d="M292.187351,55.2261188 L271.876601,55.2261188 C267.74712,55.2261188 264.398783,51.8763022 264.398783,47.7438655 C264.398783,43.6119354 267.74712,40.2621188 271.876601,40.2621188 L292.187351,40.2621188 C296.316833,40.2621188 299.66517,43.6119354 299.66517,47.7438655 C299.66517,51.8763022 296.316833,55.2261188 292.187351,55.2261188" id="Fill-4" fill="#EDF0F4"></path>
            <path d="M43.4057231,112.681983 L23.0949731,112.681983 C18.9654919,112.681983 15.6176606,109.332166 15.6176606,105.199729 C15.6176606,101.067799 18.9654919,97.7179825 23.0949731,97.7179825 L43.4057231,97.7179825 C47.5357106,97.7179825 50.8835419,101.067799 50.8835419,105.199729 C50.8835419,109.332166 47.5357106,112.681983 43.4057231,112.681983" id="Fill-6" fill="#EDF0F4"></path>
            <path d="M46.6452169,33.7746795 L32.0636981,33.7746795 C28.7366231,33.7746795 26.0388169,31.0757799 26.0388169,27.7467319 C26.0388169,24.4171773 28.7366231,21.7182777 32.0636981,21.7182777 L46.6452169,21.7182777 C49.9722919,21.7182777 52.6695919,24.4171773 52.6695919,27.7467319 C52.6695919,31.0757799 49.9722919,33.7746795 46.6452169,33.7746795" id="Fill-8" fill="#EDF0F4"></path>
            <g id="38-Printer-Print-Paper-Photo-Ink-Color-Polygraphy" transform="translate(98.000000, 0.000000)">
                <g id="Layer_1">
                    <rect id="Rectangle-path" fill="#FFC0C0" x="3.09677419" y="23.1785714" width="121.806452" height="63.2142857" rx="3"></rect>
                    <rect id="Rectangle-path" fill="#FFA9A9" x="3.09677419" y="61.1071429" width="121.806452" height="25.2857143" rx="3"></rect>
                    <path d="M84.4970857,115.892857 L30.3982202,115.892857 C26.918642,115.892857 24.0978865,113.062657 24.0978865,109.571429 L24.0978865,73.75 L103.902113,73.75 L103.902113,96.4228571 C103.900643,98.0988394 103.235895,99.7056394 102.054016,100.89 L88.9493215,114.038571 C87.7689131,115.224408 86.1674751,115.891382 84.4970857,115.892857 L84.4970857,115.892857 Z" id="Shape" fill="#FFD9D9"></path>
                    <polygon id="Shape" fill="#FFA9A9" points="87.1012236 115.892857 87.1012236 99.0357143 103.902113 99.0357143"></polygon>
                    <rect id="Rectangle-path" fill="#F78F8F" x="112.302558" y="44.25" width="12.6006674" height="16.8571429"></rect>
                    <polygon id="Shape" fill="#FFD9D9" points="99.701891 23.1785714 28.298109 23.1785714 34.5984427 2.10714286 93.4015573 2.10714286"></polygon>
                    <path d="M9.3971079,56.8928571 C8.23724849,56.8928571 7.29699666,55.9494572 7.29699666,54.7857143 L7.29699666,50.5714286 C7.29699666,49.4076857 8.23724849,48.4642857 9.3971079,48.4642857 C10.5569673,48.4642857 11.4972191,49.4076857 11.4972191,50.5714286 L11.4972191,54.7857143 C11.4972191,55.9494572 10.5569673,56.8928571 9.3971079,56.8928571 Z" id="Shape" fill="#F07979"></path>
                    <path d="M19.8976641,56.8928571 C18.7378047,56.8928571 17.7975528,55.9494572 17.7975528,54.7857143 L17.7975528,50.5714286 C17.7975528,49.4076857 18.7378047,48.4642857 19.8976641,48.4642857 C21.0575235,48.4642857 21.9977753,49.4076857 21.9977753,50.5714286 L21.9977753,54.7857143 C21.9977753,55.9494572 21.0575235,56.8928571 19.8976641,56.8928571 Z" id="Shape" fill="#F07979"></path>
                    <path d="M30.3982202,56.8928571 C29.2383608,56.8928571 28.298109,55.9494572 28.298109,54.7857143 L28.298109,50.5714286 C28.298109,49.4076857 29.2383608,48.4642857 30.3982202,48.4642857 C31.5580797,48.4642857 32.4983315,49.4076857 32.4983315,50.5714286 L32.4983315,54.7857143 C32.4983315,55.9494572 31.5580797,56.8928571 30.3982202,56.8928571 Z" id="Shape" fill="#F07979"></path>
                    <path d="M40.8987764,56.8928571 C39.738917,56.8928571 38.7986652,55.9494572 38.7986652,54.7857143 L38.7986652,50.5714286 C38.7986652,49.4076857 39.738917,48.4642857 40.8987764,48.4642857 C42.0586358,48.4642857 42.9988877,49.4076857 42.9988877,50.5714286 L42.9988877,54.7857143 C42.9988877,55.9494572 42.0586358,56.8928571 40.8987764,56.8928571 Z" id="Shape" fill="#F07979"></path>
                    <path d="M51.3993326,56.8928571 C50.2394732,56.8928571 49.2992214,55.9494572 49.2992214,54.7857143 L49.2992214,50.5714286 C49.2992214,49.4076857 50.2394732,48.4642857 51.3993326,48.4642857 C52.559192,48.4642857 53.4994438,49.4076857 53.4994438,50.5714286 L53.4994438,54.7857143 C53.4994438,55.9494572 52.559192,56.8928571 51.3993326,56.8928571 Z" id="Shape" fill="#F07979"></path>
                    <path d="M61.8998888,56.8928571 C60.7400294,56.8928571 59.7997775,55.9494572 59.7997775,54.7857143 L59.7997775,50.5714286 C59.7997775,49.4076857 60.7400294,48.4642857 61.8998888,48.4642857 C63.0597482,48.4642857 64,49.4076857 64,50.5714286 L64,54.7857143 C64,55.9494572 63.0597482,56.8928571 61.8998888,56.8928571 Z" id="Shape" fill="#F07979"></path>
                    <path d="M72.4004449,56.8928571 C71.2405855,56.8928571 70.3003337,55.9494572 70.3003337,54.7857143 L70.3003337,50.5714286 C70.3003337,49.4076857 71.2405855,48.4642857 72.4004449,48.4642857 C73.5603043,48.4642857 74.5005562,49.4076857 74.5005562,50.5714286 L74.5005562,54.7857143 C74.5005562,55.9494572 73.5603043,56.8928571 72.4004449,56.8928571 Z" id="Shape" fill="#F07979"></path>
                    <path d="M82.9010011,56.8928571 C81.7411417,56.8928571 80.8008899,55.9494572 80.8008899,54.7857143 L80.8008899,50.5714286 C80.8008899,49.4076857 81.7411417,48.4642857 82.9010011,48.4642857 C84.0608605,48.4642857 85.0011123,49.4076857 85.0011123,50.5714286 L85.0011123,54.7857143 C85.0011123,55.9494572 84.0608605,56.8928571 82.9010011,56.8928571 Z" id="Shape" fill="#F07979"></path>
                    <path d="M103.902113,56.8928571 C102.742254,56.8928571 101.802002,55.9494572 101.802002,54.7857143 L101.802002,50.5714286 C101.802002,49.4076857 102.742254,48.4642857 103.902113,48.4642857 C105.061973,48.4642857 106.002225,49.4076857 106.002225,50.5714286 L106.002225,54.7857143 C106.002225,55.9494572 105.061973,56.8928571 103.902113,56.8928571 Z" id="Shape" fill="#F07979"></path>
                    <path d="M93.4015573,56.8928571 C92.2416979,56.8928571 91.3014461,55.9494572 91.3014461,54.7857143 L91.3014461,50.5714286 C91.3014461,49.4076857 92.2416979,48.4642857 93.4015573,48.4642857 C94.5614167,48.4642857 95.5016685,49.4076857 95.5016685,50.5714286 L95.5016685,54.7857143 C95.5016685,55.9494572 94.5614167,56.8928571 93.4015573,56.8928571 Z" id="Shape" fill="#F07979"></path>
                    <rect id="Rectangle-path" fill="#FFD9D9" transform="translate(72.400445, 33.714286) rotate(-90.000000) translate(-72.400445, -33.714286) " x="70.3003337" y="-8.42857143" width="4.20022247" height="84.2857143" rx="1"></rect>
                    <rect id="Rectangle-path" fill="#FFFFFF" x="11.4972191" y="31.6071429" width="8.40044494" height="6.32142857"></rect>
                    <path d="M17.7975528,40.0357143 L13.5973304,40.0357143 C11.2776116,40.0357143 9.3971079,38.1489143 9.3971079,35.8214286 L9.3971079,33.7142857 C9.3971079,31.3868 11.2776116,29.5 13.5973304,29.5 L17.7975528,29.5 C20.1172717,29.5 21.9977753,31.3868 21.9977753,33.7142857 L21.9977753,35.8214286 C21.9977753,38.1489143 20.1172717,40.0357143 17.7975528,40.0357143 Z M13.5973304,33.7142857 L13.5973304,35.8214286 L17.7975528,35.8214286 L17.7975528,33.7142857 L13.5973304,33.7142857 Z" id="Shape" fill="#F07979"></path>
                    <path d="M21.9977753,35.8214286 L21.9977753,33.7142857 C21.9977753,31.3868 20.1172717,29.5 17.7975528,29.5 L13.5973304,29.5 C11.2776116,29.5 9.3971079,31.3868 9.3971079,33.7142857 L9.3971079,35.8214286 C9.3971079,38.1489143 11.2776116,40.0357143 13.5973304,40.0357143 L17.7975528,40.0357143 C20.1172717,40.0357143 21.9977753,38.1489143 21.9977753,35.8214286 Z M17.7975528,35.8214286 L13.5973304,35.8214286 L13.5973304,33.7142857 L17.7975528,33.7142857 L17.7975528,35.8214286 Z" id="Shape" fill="#F07979"></path>
                    <path d="M9.3971079,48.4642857 C8.23724849,48.4642857 7.29699666,49.4076857 7.29699666,50.5714286 L7.29699666,54.7857143 C7.29699666,55.9494572 8.23724849,56.8928571 9.3971079,56.8928571 C10.5569673,56.8928571 11.4972191,55.9494572 11.4972191,54.7857143 L11.4972191,50.5714286 C11.4972191,49.4076857 10.5569673,48.4642857 9.3971079,48.4642857 Z" id="Shape" fill="#F07979"></path>
                    <path d="M19.8976641,48.4642857 C18.7378047,48.4642857 17.7975528,49.4076857 17.7975528,50.5714286 L17.7975528,54.7857143 C17.7975528,55.9494572 18.7378047,56.8928571 19.8976641,56.8928571 C21.0575235,56.8928571 21.9977753,55.9494572 21.9977753,54.7857143 L21.9977753,50.5714286 C21.9977753,49.4076857 21.0575235,48.4642857 19.8976641,48.4642857 Z" id="Shape" fill="#F07979"></path>
                    <path d="M30.3982202,48.4642857 C29.2383608,48.4642857 28.298109,49.4076857 28.298109,50.5714286 L28.298109,54.7857143 C28.298109,55.9494572 29.2383608,56.8928571 30.3982202,56.8928571 C31.5580797,56.8928571 32.4983315,55.9494572 32.4983315,54.7857143 L32.4983315,50.5714286 C32.4983315,49.4076857 31.5580797,48.4642857 30.3982202,48.4642857 Z" id="Shape" fill="#F07979"></path>
                    <path d="M40.8987764,48.4642857 C39.738917,48.4642857 38.7986652,49.4076857 38.7986652,50.5714286 L38.7986652,54.7857143 C38.7986652,55.9494572 39.738917,56.8928571 40.8987764,56.8928571 C42.0586358,56.8928571 42.9988877,55.9494572 42.9988877,54.7857143 L42.9988877,50.5714286 C42.9988877,49.4076857 42.0586358,48.4642857 40.8987764,48.4642857 Z" id="Shape" fill="#F07979"></path>
                    <path d="M51.3993326,48.4642857 C50.2394732,48.4642857 49.2992214,49.4076857 49.2992214,50.5714286 L49.2992214,54.7857143 C49.2992214,55.9494572 50.2394732,56.8928571 51.3993326,56.8928571 C52.559192,56.8928571 53.4994438,55.9494572 53.4994438,54.7857143 L53.4994438,50.5714286 C53.4994438,49.4076857 52.559192,48.4642857 51.3993326,48.4642857 Z" id="Shape" fill="#F07979"></path>
                    <path d="M61.8998888,48.4642857 C60.7400294,48.4642857 59.7997775,49.4076857 59.7997775,50.5714286 L59.7997775,54.7857143 C59.7997775,55.9494572 60.7400294,56.8928571 61.8998888,56.8928571 C63.0597482,56.8928571 64,55.9494572 64,54.7857143 L64,50.5714286 C64,49.4076857 63.0597482,48.4642857 61.8998888,48.4642857 Z" id="Shape" fill="#F07979"></path>
                    <path d="M72.4004449,48.4642857 C71.2405855,48.4642857 70.3003337,49.4076857 70.3003337,50.5714286 L70.3003337,54.7857143 C70.3003337,55.9494572 71.2405855,56.8928571 72.4004449,56.8928571 C73.5603043,56.8928571 74.5005562,55.9494572 74.5005562,54.7857143 L74.5005562,50.5714286 C74.5005562,49.4076857 73.5603043,48.4642857 72.4004449,48.4642857 Z" id="Shape" fill="#F07979"></path>
                    <path d="M82.9010011,48.4642857 C81.7411417,48.4642857 80.8008899,49.4076857 80.8008899,50.5714286 L80.8008899,54.7857143 C80.8008899,55.9494572 81.7411417,56.8928571 82.9010011,56.8928571 C84.0608605,56.8928571 85.0011123,55.9494572 85.0011123,54.7857143 L85.0011123,50.5714286 C85.0011123,49.4076857 84.0608605,48.4642857 82.9010011,48.4642857 Z" id="Shape" fill="#F07979"></path>
                    <path d="M103.902113,48.4642857 C102.742254,48.4642857 101.802002,49.4076857 101.802002,50.5714286 L101.802002,54.7857143 C101.802002,55.9494572 102.742254,56.8928571 103.902113,56.8928571 C105.061973,56.8928571 106.002225,55.9494572 106.002225,54.7857143 L106.002225,50.5714286 C106.002225,49.4076857 105.061973,48.4642857 103.902113,48.4642857 Z" id="Shape" fill="#F07979"></path>
                    <path d="M93.4015573,48.4642857 C92.2416979,48.4642857 91.3014461,49.4076857 91.3014461,50.5714286 L91.3014461,54.7857143 C91.3014461,55.9494572 92.2416979,56.8928571 93.4015573,56.8928571 C94.5614167,56.8928571 95.5016685,55.9494572 95.5016685,54.7857143 L95.5016685,50.5714286 C95.5016685,49.4076857 94.5614167,48.4642857 93.4015573,48.4642857 Z" id="Shape" fill="#F07979"></path>
                    <path d="M120.703003,21.0714286 L101.38198,21.0714286 L98.4418242,6.74285714 C97.6465251,2.83342317 94.2280695,0.0191451958 90.2513904,0 L37.5385984,0 C33.5791066,0.066542445 30.186437,2.85959185 29.3481646,6.74285714 L26.4080089,21.0714286 L7.29699666,21.0714286 C3.81741844,21.0714286 0.996662959,23.9016285 0.996662959,27.3928571 L0.996662959,82.1785714 C0.948810299,83.860431 1.63992712,85.4784362 2.88676307,86.6035714 C4.03337082,87.8187667 5.62920021,88.5049835 7.29699666,88.5 L21.9977753,88.5 L21.9977753,111.678571 C21.9499226,113.360431 22.6410395,114.978436 23.8878754,116.103571 C25.0344832,117.318767 26.6303126,118.004984 28.298109,118 L86.2611791,118 C87.3690687,117.984167 88.4258458,117.529746 89.2013348,116.735714 L104.742158,101.142857 C105.53354,100.364772 105.986444,99.3044562 106.002225,98.1928571 L106.002225,88.5 L120.703003,88.5 C122.37925,88.5480129 123.991856,87.8545821 125.113237,86.6035714 C126.324377,85.4531246 127.008304,83.851952 127.003337,82.1785714 L127.003337,27.3928571 C127.003337,23.9016285 124.182582,21.0714286 120.703003,21.0714286 L120.703003,21.0714286 Z M89.2013348,110.835714 L89.2013348,101.142857 L98.8618465,101.142857 L89.2013348,110.835714 Z M101.802002,96.9285714 L89.2013348,96.9285714 C86.9049372,96.9841156 85.0564712,98.8387707 85.0011123,101.142857 L85.0011123,113.785714 L28.298109,113.785714 C27.1382496,113.785714 26.1979978,112.842314 26.1979978,111.678571 L26.1979978,75.8571429 L101.802002,75.8571429 L101.802002,96.9285714 Z M123.013126,42.1428571 L114.612681,42.1428571 C112.316283,42.1984013 110.467817,44.0530564 110.412458,46.3571429 L110.412458,59 C110.467817,61.3040865 112.316283,63.1587416 114.612681,63.2142857 L123.013126,63.2142857 L123.013126,82.1785714 C122.862321,82.7337645 122.573243,83.2413454 122.173081,83.6535714 C121.798723,84.0697839 121.261571,84.300763 120.703003,84.2857143 L106.002225,84.2857143 L106.002225,75.8571429 L112.302558,75.8571429 C113.462418,75.8571429 114.40267,74.9137429 114.40267,73.75 C114.40267,72.5862571 113.462418,71.6428571 112.302558,71.6428571 L15.6974416,71.6428571 C14.5375822,71.6428571 13.5973304,72.5862571 13.5973304,73.75 C13.5973304,74.9137429 14.5375822,75.8571429 15.6974416,75.8571429 L21.9977753,75.8571429 L21.9977753,84.2857143 L7.29699666,84.2857143 C6.73842941,84.300763 6.20127663,84.0697839 5.8269188,83.6535714 C5.41209529,83.2779602 5.18188695,82.7390089 5.19688543,82.1785714 L5.19688543,27.3928571 C5.15933137,26.8232902 5.36850347,26.2651569 5.77078155,25.8615319 C6.17305964,25.4579069 6.72933038,25.2480345 7.29699666,25.2857143 L89.2013348,25.2857143 C90.3611942,25.2857143 91.3014461,24.3423143 91.3014461,23.1785714 C91.3014461,22.0148286 90.3611942,21.0714286 89.2013348,21.0714286 L30.8182425,21.0714286 L33.5483871,7.58571429 C33.9535978,5.59183787 35.720907,4.17325667 37.7486096,4.21428571 L90.4614016,4.21428571 C92.4891042,4.17325667 94.2564133,5.59183787 94.661624,7.58571429 L97.8117909,23.6 C98.0143962,24.5969382 98.8980508,25.3062288 99.9119021,25.2857143 L120.913014,25.2857143 C121.480681,25.2480345 122.036951,25.4579069 122.43923,25.8615319 C122.841508,26.2651569 123.05068,26.8232902 123.013126,27.3928571 L123.013126,42.1428571 Z M122.803115,46.3571429 L122.803115,59 L114.40267,59 L114.40267,46.3571429 L122.803115,46.3571429 Z" id="Shape" fill="#F07979"></path>
                </g>
            </g>
        </g>
    </g>
</svg>