<?xml version="1.0" encoding="UTF-8"?>
<svg width="324px" height="173px" viewBox="0 0 324 173" version="1.1" xmlns="http://www.w3.org/2000/svg" xmlns:xlink="http://www.w3.org/1999/xlink">
    <!-- Generator: Sketch 41.2 (35397) - http://www.bohemiancoding.com/sketch -->
    <title>Page 1</title>
    <desc>Created with Sketch.</desc>
    <defs></defs>
    <g id="Page-1" stroke="none" stroke-width="1" fill="none" fill-rule="evenodd">
        <g>
            <g id="Group-3" transform="translate(0.000000, 45.201607)" fill="#F8F8F8">
                <path d="M44.8463588,0.304993886 L273.943215,0.304993886 C278.070165,0.304993886 281.415465,3.65278428 281.415465,7.78218166 C281.415465,11.9120856 278.070165,15.2593694 273.943215,15.2593694 L234.616703,15.2593694 C234.616703,20.9930114 229.971353,25.6416227 224.241109,25.6416227 L211.760527,25.6416227 C208.369159,25.6416227 205.620221,28.3921904 205.620221,31.7850638 C205.620221,35.1784437 208.369159,37.9290114 211.760527,37.9290114 L248.987621,37.9290114 C253.175321,37.9290114 256.570234,41.3259371 256.570234,45.5161205 C256.570234,49.7063039 253.175321,53.1032297 248.987621,53.1032297 L235.29609,53.1032297 C232.231759,53.1032297 229.748096,55.5888716 229.748096,58.6545135 C229.748096,61.720662 232.231759,64.2057974 235.29609,64.2057974 L315.308903,64.2057974 C319.99374,64.2057974 323.792134,68.0064437 323.792134,72.6945659 C323.792134,77.3831948 319.99374,81.1833345 315.308903,81.1833345 L264.837296,81.1833345 C264.837296,88.9173432 258.570934,95.1874218 250.841509,95.1874218 L245.848871,95.1874218 L245.848871,115.4935 L74.5566525,115.4935 L74.829015,98.2875092 L69.5057963,98.2875092 C61.4847713,98.2875092 54.9824963,91.7813782 54.9824963,83.7561031 L8.8737525,83.7561031 C3.9732525,83.7561031 0.0002025,79.7806969 0.0002025,74.8767843 C0.0002025,69.9733782 3.9732525,65.9974655 8.8737525,65.9974655 L39.7165275,65.9974655 C43.2749588,65.9974655 46.1600775,63.1111424 46.1600775,59.5506009 C46.1600775,55.9900594 43.2749588,53.1032297 39.7165275,53.1032297 L25.0312275,53.1032297 C20.4365025,53.1032297 16.7120213,49.3765397 16.7120213,44.7785834 C16.7120213,40.1811336 20.4365025,36.4544437 25.0312275,36.4544437 L95.4683213,36.4544437 C98.8693088,36.4544437 101.626853,33.6952646 101.626853,30.2917537 C101.626853,26.8882428 98.8693088,24.1295703 95.4683213,24.1295703 L77.5764338,24.1295703 C70.8038212,24.1295703 65.3140463,18.6360332 65.3140463,11.8599109 L44.8463588,11.8599109 C41.65749,11.8599109 39.0725775,9.2734655 39.0725775,6.08270568 C39.0725775,2.8914393 41.65749,0.304993886 44.8463588,0.304993886" id="Fill-1"></path>
            </g>
            <path d="M292.187351,98.2261188 L271.876601,98.2261188 C267.74712,98.2261188 264.398783,94.8763022 264.398783,90.7438655 C264.398783,86.6119354 267.74712,83.2621188 271.876601,83.2621188 L292.187351,83.2621188 C296.316833,83.2621188 299.66517,86.6119354 299.66517,90.7438655 C299.66517,94.8763022 296.316833,98.2261188 292.187351,98.2261188" id="Fill-4" fill="#EDF0F4"></path>
            <path d="M43.4057231,155.681983 L23.0949731,155.681983 C18.9654919,155.681983 15.6176606,152.332166 15.6176606,148.199729 C15.6176606,144.067799 18.9654919,140.717983 23.0949731,140.717983 L43.4057231,140.717983 C47.5357106,140.717983 50.8835419,144.067799 50.8835419,148.199729 C50.8835419,152.332166 47.5357106,155.681983 43.4057231,155.681983" id="Fill-6" fill="#EDF0F4"></path>
            <path d="M46.6452169,76.7746795 L32.0636981,76.7746795 C28.7366231,76.7746795 26.0388169,74.0757799 26.0388169,70.7467319 C26.0388169,67.4171773 28.7366231,64.7182777 32.0636981,64.7182777 L46.6452169,64.7182777 C49.9722919,64.7182777 52.6695919,67.4171773 52.6695919,70.7467319 C52.6695919,74.0757799 49.9722919,76.7746795 46.6452169,76.7746795" id="Fill-8" fill="#EDF0F4"></path>
            <g id="12-Office-Coffee-Cup-Tea-Hot-Drink" transform="translate(73.000000, 0.000000)">
                <g id="Layer_1">
                    <polygon id="Shape" fill="#FFC0C0" points="134.705729 131.832736 117.135417 158.154969 49.7825521 158.154969 35.140625 131.832736 20.4986979 70.4141906 146.419271 70.4141906"></polygon>
                    <rect id="Rectangle-path" fill="#FFD9D9" transform="translate(84.923177, 123.058658) rotate(-90.000000) translate(-84.923177, -123.058658) " x="81.9947917" y="70.4141906" width="5.85677083" height="105.288934" rx="1"></rect>
                    <polygon id="Shape" fill="#FFA9A9" points="38.5375521 137.916096 49.7825521 158.154969 117.135417 158.154969 130.635273 137.916096"></polygon>
                    <polygon id="Shape" fill="#FFA9A9" points="152.276042 169.85374 14.6419271 169.85374 5.85677083 158.154969 158.132813 158.154969"></polygon>
                    <path d="M43.9257812,123.058658 L20.4986979,123.058658 C18.8813953,123.058658 17.5703125,121.749228 17.5703125,120.133965 L17.5703125,103.989662 C17.5744204,103.09976 17.9839838,102.260137 18.683099,101.708402 L30.5723438,92.3493852 C31.642179,91.4939117 33.1629903,91.4939117 34.2328255,92.3493852 L45.7706641,101.708402 C46.4588096,102.265936 46.8571796,103.104684 46.8541667,103.989662 L46.8541667,120.133965 C46.8541667,121.749228 45.5430839,123.058658 43.9257812,123.058658 Z" id="Shape" fill="#FFD9D9"></path>
                    <path d="M134.705729,82.1129611 C134.705729,80.4976979 133.394646,79.1882684 131.777344,79.1882684 L70.28125,79.1882684 C68.6639474,79.1882684 67.3528646,80.4976979 67.3528646,82.1129611 C67.3528646,83.7282242 68.6639474,85.0376537 70.28125,85.0376537 L131.777344,85.0376537 C133.394646,85.0376537 134.705729,83.7282242 134.705729,82.1129611 Z" id="Shape" fill="#F07979"></path>
                    <path d="M61.4960938,82.1129611 C61.4960938,80.4976979 60.1850109,79.1882684 58.5677083,79.1882684 L46.8541667,79.1882684 C45.2368641,79.1882684 43.9257812,80.4976979 43.9257812,82.1129611 C43.9257812,83.7282242 45.2368641,85.0376537 46.8541667,85.0376537 L58.5677083,85.0376537 C60.1850109,85.0376537 61.4960938,83.7282242 61.4960938,82.1129611 Z" id="Shape" fill="#F07979"></path>
                    <path d="M135.086419,137.243417 C144.984362,135.430108 161.061198,131.832736 166.742266,125.98335 C173.593294,119.274966 174.868817,108.717979 169.812228,100.574512 C164.755639,92.4310439 154.719879,88.8799606 145.657891,92.0276691 L149.494076,74.4795133 C149.881317,72.7250826 149.439842,70.8902375 148.296718,69.5030939 C147.153595,68.1159504 145.435632,67.3303873 143.637305,67.3725102 L46.8541667,67.3725102 C46.8541666,62.5267209 42.9209182,58.5984326 38.0690104,58.5984326 C33.2171027,58.5984326 29.2838543,62.5267209 29.2838542,67.3725102 L22.3142969,67.3725102 C20.5142713,67.3738996 18.8148645,68.2018883 17.7058018,69.6178712 C16.5967392,71.0338541 16.2012224,72.8805351 16.6332292,74.625748 L21.8164714,95.3618186 L16.8675,99.4271414 C15.4692696,100.530613 14.6501428,102.209858 14.6419271,103.989662 L14.6419271,120.133965 C14.6419271,123.364491 17.2640927,125.98335 20.4986979,125.98335 L29.4595573,125.98335 L30.8358984,131.481773 C33.2033919,140.693004 38.3079923,148.972422 45.4778255,155.230277 L3.48477865,155.230277 C2.37558807,155.230277 1.36159621,155.856168 0.865551103,156.847007 C0.369506,157.837846 0.476555969,159.023551 1.14207031,159.909785 L4.65613281,164.589293 C8.52740174,169.744476 14.6029763,172.778432 21.0550911,172.778432 L144.047279,172.778432 C150.499394,172.778432 156.574968,169.744476 160.446237,164.589293 L163.989583,159.909785 C164.655098,159.023551 164.762148,157.837846 164.266103,156.847007 C163.770057,155.856168 162.756066,155.230277 161.646875,155.230277 L122.494362,155.230277 C128.055855,150.312656 132.371147,144.148568 135.086419,137.243417 L135.086419,137.243417 Z M162.613242,101.123463 C165.394177,103.87039 166.959083,107.614377 166.959083,111.520745 C166.959083,115.427114 165.394177,119.1711 162.613242,121.918028 C159.040612,125.486153 147.766328,128.761808 137.107005,130.896834 C137.107005,130.633612 137.253424,130.399636 137.311992,130.136414 L144.076563,99.2809068 C149.900423,95.3841562 157.672644,96.1567194 162.613242,101.123463 Z M38.0690104,64.5648053 C39.686313,64.5648053 40.9973958,65.8742348 40.9973958,67.489498 L35.140625,67.489498 C35.140625,65.8742348 36.4517078,64.5648053 38.0690104,64.5648053 Z M22.3142969,73.3388832 L29.2838542,73.3388832 L29.2838542,89.7464088 C29.1030653,89.8344613 28.9271118,89.93209 28.7567448,90.0388781 L26.8825781,91.5304713 L22.3142969,73.3388832 Z M20.4986979,104.018909 L32.3879427,94.6598924 L43.9257812,103.989662 L43.9257812,120.133965 L20.4986979,120.133965 L20.4986979,104.018909 Z M144.047279,166.929047 L21.0550911,166.929047 C16.4464377,166.929047 12.1067416,164.761935 9.34154948,161.079662 L155.76082,161.079662 C152.995628,164.761935 148.655932,166.929047 144.047279,166.929047 L144.047279,166.929047 Z M55.2000651,155.230277 C45.8875688,149.636553 39.1626727,140.597246 36.4876823,130.07792 L35.4920313,125.98335 L43.9257813,125.98335 C47.1603865,125.98335 49.7825521,123.364491 49.7825521,120.133965 L49.7825521,103.989662 C49.7797397,102.22995 48.9838594,100.565006 47.6155469,99.4563883 L36.0777083,90.0973719 C35.7914963,89.8951056 35.4876764,89.7189165 35.1699089,89.5709273 L35.1699089,73.3388832 L143.75444,73.3388832 L131.601641,128.908043 C129.173935,139.916861 122.309272,149.439092 112.625703,155.230277 L55.2000651,155.230277 Z" id="Shape" fill="#F07979"></path>
                    <path d="M88.9057813,57.0775922 C88.1629748,57.9272509 87.9755887,59.1277953 88.4242057,60.1629478 C88.8728227,61.1981002 89.8774742,61.8833385 91.0061234,61.9239851 C92.1347726,61.9646318 93.1862311,61.3534413 93.7083333,60.353248 L97.3688151,55.0010605 C99.3514966,52.0459567 99.3514966,48.1876908 97.3688151,45.2325871 L95.8167708,42.8635861 C95.1602282,41.8807815 95.1602282,40.5999818 95.8167708,39.6171773 L97.3688151,37.3066701 C99.3254461,34.3649714 99.3254461,30.5383893 97.3688151,27.5966906 L95.5239323,24.671998 C94.9453946,23.7987979 94.878382,22.6833291 95.3482292,21.7473053 L98.2766146,16.1026486 C99.677477,13.2894181 99.4652577,9.94281214 97.7202214,7.3285707 L93.7083333,1.5376793 C93.1561705,0.604858922 92.1328436,0.0534076451 91.0490518,0.104643485 C89.96526,0.155879325 88.9986626,0.801403514 88.5371912,1.78214306 C88.0757198,2.76288261 88.1950205,3.91807107 88.8472135,4.78408811 L92.8298177,10.6334734 C93.4083554,11.5066734 93.475368,12.6221422 93.0055208,13.558166 L90.0771354,19.2028227 C88.6675939,22.0108941 88.8686318,25.3573005 90.6042448,27.9769006 L92.4491276,30.9015932 C93.1056703,31.8843978 93.1056703,33.1651975 92.4491276,34.148002 L90.8970833,36.4585092 C88.9404524,39.4002079 88.9404524,43.22679 90.8970833,46.1684887 L92.4491276,48.5374898 C93.1056703,49.5202943 93.1056703,50.801094 92.4491276,51.7838986 L88.9057813,57.0775922 Z" id="Shape" fill="#F07979"></path>
                    <path d="M75.0252344,30.8430994 C75.681777,31.8259039 75.681777,33.1067036 75.0252344,34.0895082 L73.4731901,36.4000154 C71.5165591,39.3417141 71.5165591,43.1682962 73.4731901,46.1099949 L75.0252344,48.4789959 C75.681777,49.4618005 75.681777,50.7426002 75.0252344,51.7254047 L71.3647526,57.0775922 C70.5788019,57.9176657 70.3585796,59.1397133 70.8019342,60.2007586 C71.2452888,61.261804 72.2699627,61.9649865 73.4206761,61.9978704 C74.5713894,62.0307544 75.6346451,61.3872386 76.1380208,60.353248 L79.7985026,55.0010605 C81.7811841,52.0459567 81.7811841,48.1876908 79.7985026,45.2325871 L78.2464583,42.8635861 C77.5899157,41.8807815 77.5899157,40.5999818 78.2464583,39.6171773 L79.7985026,37.3066701 C81.7551336,34.3649714 81.7551336,30.5383893 79.7985026,27.5966906 L76.1380208,22.0105277 C75.5708872,21.1187526 74.5662982,20.6017583 73.5100152,20.6580702 C72.4537322,20.7143821 71.5099573,21.3352463 71.0410993,22.2822515 C70.5722412,23.2292568 70.6511854,24.3551883 71.2476172,25.2276895 L75.0252344,30.8430994 Z" id="Shape" fill="#F07979"></path>
                    <path d="M57.4549219,48.4789959 C58.1114645,49.4618005 58.1114645,50.7426002 57.4549219,51.7254047 L53.7944401,57.0775922 C53.0084894,57.9176657 52.7882671,59.1397133 53.2316217,60.2007586 C53.6749763,61.261804 54.6996502,61.9649865 55.8503636,61.9978704 C57.0010769,62.0307544 58.0643326,61.3872386 58.5677083,60.353248 L62.2281901,55.0010605 C64.2108716,52.0459567 64.2108716,48.1876908 62.2281901,45.2325871 L58.5677083,39.6464242 C58.0005747,38.7546491 56.9959857,38.2376548 55.9397027,38.2939667 C54.8834197,38.3502786 53.9396448,38.9711428 53.4707868,39.9181481 C53.0019287,40.8651533 53.0808729,41.9910849 53.6773047,42.8635861 L57.4549219,48.4789959 Z" id="Shape" fill="#F07979"></path>
                    <path d="M108.906654,61.6401127 C109.880711,61.6415784 110.791742,61.1592313 111.337214,60.353248 L114.997695,55.0010605 C116.980377,52.0459567 116.980377,48.1876908 114.997695,45.2325871 L113.445651,42.8635861 C112.789108,41.8807815 112.789108,40.5999818 113.445651,39.6171773 L117.135417,34.1187551 C117.926361,32.7825394 117.534336,31.0619613 116.242352,30.1991335 C114.950367,29.3363057 113.208529,29.6318228 112.274297,30.8723463 L108.584531,36.4292623 C106.6279,39.370961 106.6279,43.1975431 108.584531,46.1392418 L110.136576,48.5082428 C110.793118,49.4910474 110.793118,50.7718471 110.136576,51.7546516 L106.476094,57.1068391 C105.885207,58.0029274 105.833047,59.150217 106.340191,60.0960998 C106.847336,61.0419826 107.832354,61.6345806 108.906654,61.6401127 Z" id="Shape" fill="#F07979"></path>
                    <path d="M46.8541667,131.832736 C45.2368641,131.832736 43.9257812,133.142165 43.9257812,134.757428 L43.9257812,140.606814 C43.9257812,142.222077 45.2368641,143.531506 46.8541667,143.531506 C48.4714693,143.531506 49.7825521,142.222077 49.7825521,140.606814 L49.7825521,134.757428 C49.7825521,133.142165 48.4714693,131.832736 46.8541667,131.832736 Z" id="Shape" fill="#F07979"></path>
                    <path d="M61.4960938,131.832736 C59.8787911,131.832736 58.5677083,133.142165 58.5677083,134.757428 L58.5677083,140.606814 C58.5677083,142.222077 59.8787911,143.531506 61.4960938,143.531506 C63.1133964,143.531506 64.4244792,142.222077 64.4244792,140.606814 L64.4244792,134.757428 C64.4244792,133.142165 63.1133964,131.832736 61.4960938,131.832736 Z" id="Shape" fill="#F07979"></path>
                    <path d="M76.1380208,131.832736 C74.5207182,131.832736 73.2096354,133.142165 73.2096354,134.757428 L73.2096354,140.606814 C73.2096354,142.222077 74.5207182,143.531506 76.1380208,143.531506 C77.7553234,143.531506 79.0664063,142.222077 79.0664063,140.606814 L79.0664063,134.757428 C79.0664063,133.142165 77.7553234,131.832736 76.1380208,131.832736 Z" id="Shape" fill="#F07979"></path>
                    <path d="M90.7799479,131.832736 C89.1626453,131.832736 87.8515625,133.142165 87.8515625,134.757428 L87.8515625,140.606814 C87.8515625,142.222077 89.1626453,143.531506 90.7799479,143.531506 C92.3972505,143.531506 93.7083333,142.222077 93.7083333,140.606814 L93.7083333,134.757428 C93.7083333,133.142165 92.3972505,131.832736 90.7799479,131.832736 Z" id="Shape" fill="#F07979"></path>
                    <path d="M105.421875,131.832736 C103.804572,131.832736 102.49349,133.142165 102.49349,134.757428 L102.49349,140.606814 C102.49349,142.222077 103.804572,143.531506 105.421875,143.531506 C107.039178,143.531506 108.35026,142.222077 108.35026,140.606814 L108.35026,134.757428 C108.35026,133.142165 107.039178,131.832736 105.421875,131.832736 Z" id="Shape" fill="#F07979"></path>
                    <path d="M122.992188,140.606814 L122.992188,134.757428 C122.992188,133.142165 121.681105,131.832736 120.063802,131.832736 C118.446499,131.832736 117.135417,133.142165 117.135417,134.757428 L117.135417,140.606814 C117.135417,142.222077 118.446499,143.531506 120.063802,143.531506 C121.681105,143.531506 122.992188,142.222077 122.992188,140.606814 Z" id="Shape" fill="#F07979"></path>
                </g>
            </g>
        </g>
    </g>
</svg>