<?xml version="1.0" encoding="UTF-8"?>
<svg width="324px" height="136px" viewBox="0 0 324 136" version="1.1" xmlns="http://www.w3.org/2000/svg" xmlns:xlink="http://www.w3.org/1999/xlink">
    <!-- Generator: Sketch 41.2 (35397) - http://www.bohemiancoding.com/sketch -->
    <title>Page 1</title>
    <desc>Created with Sketch.</desc>
    <defs></defs>
    <g id="Page-1" stroke="none" stroke-width="1" fill="none" fill-rule="evenodd">
        <g>
            <g id="Group-3" transform="translate(0.000000, 0.201607)" fill="#F8F8F8">
                <path d="M44.8463588,0.304993886 L273.943215,0.304993886 C278.070165,0.304993886 281.415465,3.65278428 281.415465,7.78218166 C281.415465,11.9120856 278.070165,15.2593694 273.943215,15.2593694 L234.616703,15.2593694 C234.616703,20.9930114 229.971353,25.6416227 224.241109,25.6416227 L211.760527,25.6416227 C208.369159,25.6416227 205.620221,28.3921904 205.620221,31.7850638 C205.620221,35.1784437 208.369159,37.9290114 211.760527,37.9290114 L248.987621,37.9290114 C253.175321,37.9290114 256.570234,41.3259371 256.570234,45.5161205 C256.570234,49.7063039 253.175321,53.1032297 248.987621,53.1032297 L235.29609,53.1032297 C232.231759,53.1032297 229.748096,55.5888716 229.748096,58.6545135 C229.748096,61.720662 232.231759,64.2057974 235.29609,64.2057974 L315.308903,64.2057974 C319.99374,64.2057974 323.792134,68.0064437 323.792134,72.6945659 C323.792134,77.3831948 319.99374,81.1833345 315.308903,81.1833345 L264.837296,81.1833345 C264.837296,88.9173432 258.570934,95.1874218 250.841509,95.1874218 L245.848871,95.1874218 L245.848871,115.4935 L74.5566525,115.4935 L74.829015,98.2875092 L69.5057963,98.2875092 C61.4847713,98.2875092 54.9824963,91.7813782 54.9824963,83.7561031 L8.8737525,83.7561031 C3.9732525,83.7561031 0.0002025,79.7806969 0.0002025,74.8767843 C0.0002025,69.9733782 3.9732525,65.9974655 8.8737525,65.9974655 L39.7165275,65.9974655 C43.2749588,65.9974655 46.1600775,63.1111424 46.1600775,59.5506009 C46.1600775,55.9900594 43.2749588,53.1032297 39.7165275,53.1032297 L25.0312275,53.1032297 C20.4365025,53.1032297 16.7120213,49.3765397 16.7120213,44.7785834 C16.7120213,40.1811336 20.4365025,36.4544437 25.0312275,36.4544437 L95.4683213,36.4544437 C98.8693088,36.4544437 101.626853,33.6952646 101.626853,30.2917537 C101.626853,26.8882428 98.8693088,24.1295703 95.4683213,24.1295703 L77.5764338,24.1295703 C70.8038212,24.1295703 65.3140463,18.6360332 65.3140463,11.8599109 L44.8463588,11.8599109 C41.65749,11.8599109 39.0725775,9.2734655 39.0725775,6.08270568 C39.0725775,2.8914393 41.65749,0.304993886 44.8463588,0.304993886" id="Fill-1"></path>
            </g>
            <path d="M292.187351,53.2261188 L271.876601,53.2261188 C267.74712,53.2261188 264.398783,49.8763022 264.398783,45.7438655 C264.398783,41.6119354 267.74712,38.2621188 271.876601,38.2621188 L292.187351,38.2621188 C296.316833,38.2621188 299.66517,41.6119354 299.66517,45.7438655 C299.66517,49.8763022 296.316833,53.2261188 292.187351,53.2261188" id="Fill-4" fill="#EDF0F4"></path>
            <path d="M43.4057231,110.681983 L23.0949731,110.681983 C18.9654919,110.681983 15.6176606,107.332166 15.6176606,103.199729 C15.6176606,99.0677991 18.9654919,95.7179825 23.0949731,95.7179825 L43.4057231,95.7179825 C47.5357106,95.7179825 50.8835419,99.0677991 50.8835419,103.199729 C50.8835419,107.332166 47.5357106,110.681983 43.4057231,110.681983" id="Fill-6" fill="#EDF0F4"></path>
            <path d="M46.6452169,31.7746795 L32.0636981,31.7746795 C28.7366231,31.7746795 26.0388169,29.0757799 26.0388169,25.7467319 C26.0388169,22.4171773 28.7366231,19.7182777 32.0636981,19.7182777 L46.6452169,19.7182777 C49.9722919,19.7182777 52.6695919,22.4171773 52.6695919,25.7467319 C52.6695919,29.0757799 49.9722919,31.7746795 46.6452169,31.7746795" id="Fill-8" fill="#EDF0F4"></path>
            <g id="49-Thermometer-Heater-Climate-Control-House-Home" transform="translate(86.000000, 0.000000)">
                <path d="M2.3373494,68 C2.3373494,31.7395862 31.6383614,2.34482759 67.7831325,2.34482759 C103.927904,2.34482759 133.228916,31.7395862 133.228916,68 C133.228916,104.260414 103.927904,133.655172 67.7831325,133.655172 C31.6383614,133.655172 2.3373494,104.260414 2.3373494,68 Z" id="Fill-39" fill="#FFD9D9"></path>
                <path d="M25.0397904,117.914579 C31.1800072,123.771959 38.4468265,128.442855 46.4896458,131.56851 L126.216634,51.5864414 L126.216634,36.5185793 C123.743718,32.3987172 120.822031,28.5836828 117.538055,25.1203724 L25.0397904,117.914579 Z" id="Fill-41" fill="#FFE9E9"></path>
                <path d="M20.4814916,113.108152 L112.19207,21.1041517 L98.1679735,21.1041517 L14.5399494,104.999738 C16.3139976,107.858083 18.3030819,110.564014 20.4814916,113.108152" id="Fill-43" fill="#FFE9E9"></path>
                <path d="M13.544706,96.6188552 L91.1563928,18.7588552 L79.4696458,18.7588552 L10.1976217,88.2525103 C11.1302241,91.1296138 12.2428024,93.9293379 13.544706,96.6188552" id="Fill-45" fill="#FFE9E9"></path>
                <path d="M67.7831325,119.586207 C39.3843373,119.586207 16.3614458,96.4896552 16.3614458,68 C16.3614458,39.5103448 39.3843373,16.4137931 67.7831325,16.4137931 C81.533759,16.4137931 94.0245542,21.828 103.250072,30.6468966 C103.787663,31.1627586 104.315904,31.6903448 104.832458,32.2273103 C105.435494,32.858069 106.024506,33.5005517 106.594819,34.1594483 C114.450651,43.2198621 119.204819,55.0542069 119.204819,68 C119.204819,96.4896552 96.1819277,119.586207 67.7831325,119.586207 M67.7831325,2.34482759 C31.6383614,2.34482759 2.3373494,31.7395862 2.3373494,68 C2.3373494,104.260414 31.6383614,133.655172 67.7831325,133.655172 C103.927904,133.655172 133.228916,104.260414 133.228916,68 C133.228916,31.7395862 103.927904,2.34482759 67.7831325,2.34482759" id="Fill-47" fill="#FFA9A9"></path>
                <polygon id="Fill-49" fill="#FFD9D9" points="114.53012 9.37931034 126.216867 23.4482759 121.542169 28.137931 100.506024 37.5172414 107.955157 16.4137931"></polygon>
                <path d="M116.783092,83.8597103 C115.577019,83.4118483 114.226031,84.0215034 113.77726,85.2361241 C113.155525,86.9009517 112.435622,88.5564 111.629236,90.1602621 C111.047236,91.3139172 111.510031,92.7231586 112.662345,93.3070207 C113.00126,93.4805379 113.358875,93.5602621 113.714152,93.5602621 C114.567284,93.5602621 115.390031,93.0889517 115.801405,92.2706069 C116.684923,90.5166759 117.477284,88.6994345 118.155116,86.8751586 C118.606224,85.6628828 117.993839,84.3099172 116.783092,83.8597103" id="Fill-51" fill="#F07979"></path>
                <path d="M67.7831325,42.2068966 C69.0756867,42.2068966 70.1204819,41.1587586 70.1204819,39.862069 L70.1204819,30.4827586 C70.1204819,29.186069 69.0756867,28.137931 67.7831325,28.137931 C66.4905783,28.137931 65.4457831,29.186069 65.4457831,30.4827586 L65.4457831,39.862069 C65.4457831,41.1587586 66.4905783,42.2068966 67.7831325,42.2068966" id="Fill-53" fill="#F07979"></path>
                <path d="M87.6164771,50.4480276 C88.2148386,50.4480276 88.8132,50.2182345 89.2689831,49.7609931 L95.8790072,43.1298207 C96.7929108,42.2129931 96.7929108,40.7287172 95.8790072,39.8142345 C94.967441,38.8974069 93.4878988,38.8974069 92.5739952,39.8142345 L85.9639711,46.4454069 C85.0500675,47.3622345 85.0500675,48.8441655 85.9639711,49.7609931 C86.4197542,50.2182345 87.0181157,50.4480276 87.6164771,50.4480276" id="Fill-55" fill="#F07979"></path>
                <path d="M46.2972819,49.7612276 C46.7530651,50.218469 47.3514265,50.4482621 47.949788,50.4482621 C48.5481494,50.4482621 49.1465108,50.218469 49.602294,49.7612276 C50.5161976,48.8444 50.5161976,47.362469 49.602294,46.4456414 L42.9922699,39.814469 C42.0783663,38.8976414 40.5988241,38.8976414 39.6872578,39.814469 C38.7733542,40.7289517 38.7733542,42.2132276 39.6872578,43.1300552 L46.2972819,49.7612276 Z" id="Fill-57" fill="#F07979"></path>
                <path d="M54.6720048,43.0151586 C55.0506554,43.9085379 55.9154747,44.4431586 56.8247036,44.4431586 C57.1308964,44.4431586 57.4417639,44.3845379 57.7386072,44.2579172 C58.9259807,43.7514345 59.4822699,42.3750207 58.9774024,41.1838483 L55.321788,32.5478483 C54.8169205,31.354331 53.4378843,30.8079862 52.2575229,31.3050897 C51.067812,31.8115724 50.5138602,33.190331 51.0187277,34.3791586 L54.6720048,43.0151586 Z" id="Fill-59" fill="#F07979"></path>
                <path d="M77.8288265,44.2586207 C78.1256699,44.3852414 78.4365373,44.4438621 78.7427301,44.4438621 C79.6496217,44.4438621 80.514441,43.9092414 80.8954289,43.0158621 L84.548706,34.3798621 C85.0535735,33.1886897 84.4996217,31.809931 83.3099108,31.3057931 C82.1318867,30.8086897 80.7481759,31.3550345 80.2433084,32.5485517 L76.5900313,41.1822069 C76.0851639,42.3733793 76.6391157,43.7521379 77.8288265,44.2586207" id="Fill-61" fill="#F07979"></path>
                <path d="M32.4445133,55.4994897 L41.0529711,59.1644552 C41.3498145,59.2910759 41.6583446,59.3520414 41.9645373,59.3520414 C42.8737663,59.3520414 43.7385855,58.8150759 44.1172361,57.9216966 C44.6221036,56.7305241 44.0681518,55.3541103 42.878441,54.8476276 L34.2699831,51.1803172 C33.091959,50.6785241 31.7129229,51.2319034 31.2057181,52.4230759 C30.7008506,53.6142483 31.2548024,54.9930069 32.4445133,55.4994897" id="Fill-63" fill="#F07979"></path>
                <path d="M103.121752,80.5005103 L94.513294,76.8355448 C93.3352699,76.3360966 91.9562337,76.8824414 91.4490289,78.0783034 C90.9441614,79.2694759 91.4981133,80.6458897 92.6878241,81.1523724 L101.296282,84.8196828 C101.593125,84.9463034 101.903993,85.0049241 102.207848,85.0049241 C103.117077,85.0049241 103.981896,84.4679586 104.360547,83.5769241 C104.865414,82.3857517 104.311463,81.0069931 103.121752,80.5005103" id="Fill-65" fill="#F07979"></path>
                <path d="M91.4487952,57.9221655 C91.8274458,58.8155448 92.6922651,59.3501655 93.601494,59.3501655 C93.9076867,59.3501655 94.2185542,59.2915448 94.5153976,59.1649241 L103.121518,55.4999586 C104.311229,54.9934759 104.865181,53.6147172 104.360313,52.4235448 C103.855446,51.2300276 102.47641,50.6789931 101.296048,51.1807862 L92.6875904,54.8457517 C91.4978795,55.3522345 90.9439277,56.7309931 91.4487952,57.9221655" id="Fill-67" fill="#F07979"></path>
                <path d="M44.1174699,78.0778345 C43.6102651,76.8819724 42.2288916,76.3356276 41.0508675,76.8350759 L32.444747,80.5000414 C31.2550361,81.0065241 30.7010843,82.3852828 31.2059518,83.5764552 C31.5846024,84.4698345 32.4494217,85.0044552 33.3563133,85.0044552 C33.662506,85.0044552 33.9733735,84.9458345 34.2702169,84.8192138 L42.8786747,81.1542483 C44.0683855,80.6477655 44.6223373,79.2690069 44.1174699,78.0778345" id="Fill-69" fill="#F07979"></path>
                <path d="M42.0722892,68 C42.0722892,66.7033103 41.027494,65.6551724 39.7349398,65.6551724 L30.3855422,65.6551724 C29.092988,65.6551724 28.0481928,66.7033103 28.0481928,68 C28.0481928,69.2966897 29.092988,70.3448276 30.3855422,70.3448276 L39.7349398,70.3448276 C41.027494,70.3448276 42.0722892,69.2966897 42.0722892,68" id="Fill-71" fill="#F07979"></path>
                <path d="M105.180723,65.6551724 L95.8313253,65.6551724 C94.5387711,65.6551724 93.4939759,66.7033103 93.4939759,68 C93.4939759,69.2966897 94.5387711,70.3448276 95.8313253,70.3448276 L105.180723,70.3448276 C106.473277,70.3448276 107.518072,69.2966897 107.518072,68 C107.518072,66.7033103 106.473277,65.6551724 105.180723,65.6551724" id="Fill-73" fill="#F07979"></path>
                <path d="M91.1566265,93.7931034 L44.4096386,93.7931034 C43.1170843,93.7931034 42.0722892,94.8412414 42.0722892,96.137931 C42.0722892,97.4346207 43.1170843,98.4827586 44.4096386,98.4827586 L91.1566265,98.4827586 C92.4491807,98.4827586 93.4939759,97.4346207 93.4939759,96.137931 C93.4939759,94.8412414 92.4491807,93.7931034 91.1566265,93.7931034" id="Fill-78" fill="#F07979"></path>
                <path d="M81.8072289,103.172414 L53.7590361,103.172414 C52.4664819,103.172414 51.4216867,104.220552 51.4216867,105.517241 C51.4216867,106.813931 52.4664819,107.862069 53.7590361,107.862069 L81.8072289,107.862069 C83.0997831,107.862069 84.1445783,106.813931 84.1445783,105.517241 C84.1445783,104.220552 83.0997831,103.172414 81.8072289,103.172414" id="Fill-79" fill="#F07979"></path>
                <text id="365" fill="#F07979" font-family="BrandNeue-Bold, Brand Neue" font-size="36" font-weight="bold">
                    <tspan x="47" y="78.7128385">365</tspan>
                </text>
                <path d="M67.7831325,131.310345 C32.9846747,131.310345 4.6746988,102.909793 4.6746988,68 C4.6746988,33.0902069 32.9846747,4.68965517 67.7831325,4.68965517 C81.8493012,4.68965517 94.812241,9.38165517 105.316289,17.2157241 L101.518096,26.1190345 C92.2785542,18.6132414 80.5660964,14.0689655 67.7831325,14.0689655 C38.1385301,14.0689655 14.0240964,38.2605517 14.0240964,68 C14.0240964,97.7394483 38.1385301,121.931034 67.7831325,121.931034 C84.0440723,121.931034 99.2578795,114.662069 109.525855,101.988276 C110.339253,100.982345 110.189663,99.5074483 109.18694,98.6891034 C108.186554,97.8731034 106.714024,98.0255172 105.898289,99.0291034 C96.5231807,110.603172 82.6299759,117.241379 67.7831325,117.241379 C40.7189639,117.241379 18.6987952,95.1507586 18.6987952,68 C18.6987952,40.8492414 40.7189639,18.7586207 67.7831325,18.7586207 C79.9326747,18.7586207 91.0070361,23.2794483 99.5827711,30.6468966 L96.953253,36.8091034 C96.5769398,37.6907586 96.7732771,38.7131034 97.4487711,39.3907586 C97.8975422,39.8386207 98.4959036,40.0777931 99.1012771,40.0777931 C99.4121446,40.0777931 99.7253494,40.0144828 100.022193,39.8878621 L106.017494,37.3132414 C112.763084,45.7405517 116.86747,56.3766897 116.86747,68 C116.86747,70.4737931 116.685157,72.949931 116.322867,75.3697931 C116.131205,76.6477241 117.012386,77.8435862 118.286241,78.0358621 C119.592819,78.2164138 120.756819,77.3441379 120.946145,76.0638621 C121.341157,73.4188966 121.542169,70.7035862 121.542169,68 C121.542169,55.7388966 117.402723,44.4555862 110.502867,35.3881379 L119.319349,31.6035862 C126.576819,41.9114483 130.891566,54.4468966 130.891566,68 C130.891566,102.909793 102.58159,131.310345 67.7831325,131.310345 M112.550386,14.3151724 L113.987855,12.8707586 L123.907566,22.8175172 L122.507494,24.2197241 C121.455687,25.2772414 120.223904,26.1143448 118.844867,26.7075862 L103.546916,33.2731034 L110.06812,17.9918621 C110.65947,16.6107586 111.491566,15.3750345 112.550386,14.3151724 M123.519566,29.4393103 C124.335301,28.8742069 125.106627,28.2457931 125.812506,27.5353103 L127.210241,26.1354483 C129.033373,24.3088276 129.033373,21.3332414 127.210241,19.5042759 L117.292867,9.55517241 C115.472072,7.73089655 112.508313,7.7262069 110.680506,9.55517241 L109.245373,10.9972414 C108.614289,11.6326897 108.065012,12.3337931 107.550795,13.0513103 C96.3665783,4.88193103 82.6463373,0 67.7831325,0 C30.4089157,0 0,30.5062069 0,68 C0,105.493793 30.4089157,136 67.7831325,136 C105.157349,136 135.566265,105.493793 135.566265,68 C135.566265,53.6801379 131.085566,40.4084138 123.519566,29.4393103" id="Fill-80" fill="#F07979"></path>
            </g>
        </g>
    </g>
</svg>