<?xml version="1.0" encoding="UTF-8"?>
<svg width="324px" height="118px" viewBox="0 0 324 118" version="1.1" xmlns="http://www.w3.org/2000/svg" xmlns:xlink="http://www.w3.org/1999/xlink">
    <!-- Generator: Sketch 41.2 (35397) - http://www.bohemiancoding.com/sketch -->
    <title>Page 1</title>
    <desc>Created with Sketch.</desc>
    <defs></defs>
    <g id="Page-1" stroke="none" stroke-width="1" fill="none" fill-rule="evenodd">
        <g>
            <g id="Group-3" transform="translate(0.000000, 1.201607)" fill="#F8F8F8">
                <path d="M44.8463588,0.304993886 L273.943215,0.304993886 C278.070165,0.304993886 281.415465,3.65278428 281.415465,7.78218166 C281.415465,11.9120856 278.070165,15.2593694 273.943215,15.2593694 L234.616703,15.2593694 C234.616703,20.9930114 229.971353,25.6416227 224.241109,25.6416227 L211.760527,25.6416227 C208.369159,25.6416227 205.620221,28.3921904 205.620221,31.7850638 C205.620221,35.1784437 208.369159,37.9290114 211.760527,37.9290114 L248.987621,37.9290114 C253.175321,37.9290114 256.570234,41.3259371 256.570234,45.5161205 C256.570234,49.7063039 253.175321,53.1032297 248.987621,53.1032297 L235.29609,53.1032297 C232.231759,53.1032297 229.748096,55.5888716 229.748096,58.6545135 C229.748096,61.720662 232.231759,64.2057974 235.29609,64.2057974 L315.308903,64.2057974 C319.99374,64.2057974 323.792134,68.0064437 323.792134,72.6945659 C323.792134,77.3831948 319.99374,81.1833345 315.308903,81.1833345 L264.837296,81.1833345 C264.837296,88.9173432 258.570934,95.1874218 250.841509,95.1874218 L245.848871,95.1874218 L245.848871,115.4935 L74.5566525,115.4935 L74.829015,98.2875092 L69.5057963,98.2875092 C61.4847713,98.2875092 54.9824963,91.7813782 54.9824963,83.7561031 L8.8737525,83.7561031 C3.9732525,83.7561031 0.0002025,79.7806969 0.0002025,74.8767843 C0.0002025,69.9733782 3.9732525,65.9974655 8.8737525,65.9974655 L39.7165275,65.9974655 C43.2749588,65.9974655 46.1600775,63.1111424 46.1600775,59.5506009 C46.1600775,55.9900594 43.2749588,53.1032297 39.7165275,53.1032297 L25.0312275,53.1032297 C20.4365025,53.1032297 16.7120213,49.3765397 16.7120213,44.7785834 C16.7120213,40.1811336 20.4365025,36.4544437 25.0312275,36.4544437 L95.4683213,36.4544437 C98.8693088,36.4544437 101.626853,33.6952646 101.626853,30.2917537 C101.626853,26.8882428 98.8693088,24.1295703 95.4683213,24.1295703 L77.5764338,24.1295703 C70.8038212,24.1295703 65.3140463,18.6360332 65.3140463,11.8599109 L44.8463588,11.8599109 C41.65749,11.8599109 39.0725775,9.2734655 39.0725775,6.08270568 C39.0725775,2.8914393 41.65749,0.304993886 44.8463588,0.304993886" id="Fill-1"></path>
            </g>
            <path d="M292.187351,54.2261188 L271.876601,54.2261188 C267.74712,54.2261188 264.398783,50.8763022 264.398783,46.7438655 C264.398783,42.6119354 267.74712,39.2621188 271.876601,39.2621188 L292.187351,39.2621188 C296.316833,39.2621188 299.66517,42.6119354 299.66517,46.7438655 C299.66517,50.8763022 296.316833,54.2261188 292.187351,54.2261188" id="Fill-4" fill="#EDF0F4"></path>
            <path d="M43.4057231,111.681983 L23.0949731,111.681983 C18.9654919,111.681983 15.6176606,108.332166 15.6176606,104.199729 C15.6176606,100.067799 18.9654919,96.7179825 23.0949731,96.7179825 L43.4057231,96.7179825 C47.5357106,96.7179825 50.8835419,100.067799 50.8835419,104.199729 C50.8835419,108.332166 47.5357106,111.681983 43.4057231,111.681983" id="Fill-6" fill="#EDF0F4"></path>
            <path d="M46.6452169,32.7746795 L32.0636981,32.7746795 C28.7366231,32.7746795 26.0388169,30.0757799 26.0388169,26.7467319 C26.0388169,23.4171773 28.7366231,20.7182777 32.0636981,20.7182777 L46.6452169,20.7182777 C49.9722919,20.7182777 52.6695919,23.4171773 52.6695919,26.7467319 C52.6695919,30.0757799 49.9722919,32.7746795 46.6452169,32.7746795" id="Fill-8" fill="#EDF0F4"></path>
            <g id="Layer_1" transform="translate(95.000000, 0.000000)">
                <polygon id="Shape" fill="#FFC0C0" points="85.5 115.730769 49.5 115.730769 56.25 93.0384615 78.75 93.0384615"></polygon>
                <polygon id="Shape" fill="#FFA9A9" points="81.45 102.115385 78.75 93.0384615 56.25 93.0384615 53.55 102.115385"></polygon>
                <rect id="Rectangle-path" fill="#FFC0C0" x="2.25" y="2.26923077" width="130.5" height="90.7692308" rx="2"></rect>
                <rect id="Rectangle-path" fill="#FFD9D9" x="2.25" y="11.3461538" width="130.5" height="63.5384615"></rect>
                <polygon id="Shape" fill="#FFF0F0" points="96.75 74.8846154 130.5 40.8461538 130.5 11.3461538 126 11.3461538 63 74.8846154"></polygon>
                <polygon id="Shape" fill="#FFF0F0" points="40.5 74.8846154 54 74.8846154 117 11.3461538 103.5 11.3461538"></polygon>
                <polygon id="Shape" fill="#FFF0F0" points="31.5 74.8846154 94.5 11.3461538 83.25 11.3461538 20.25 74.8846154"></polygon>
                <rect id="Rectangle-path" fill="#FFD9D9" transform="translate(67.500000, 83.961538) rotate(-90.000000) translate(-67.500000, -83.961538) " x="65.25" y="24.9615385" width="4.5" height="118" rx="1"></rect>
                <polygon id="Shape" fill="#FFF8F8" points="16.875 24.9615385 19.665 30.09 24.75 32.9038462 19.665 35.7176923 16.875 40.8461538 14.085 35.7176923 9 32.9038462 14.085 30.09"></polygon>
                <polygon id="Shape" fill="#FFF8F8" points="81.945 18.5169231 83.8575 22.0796154 87.39 24.0084615 83.8575 25.96 81.945 29.5 80.01 25.96 76.5 24.0084615 80.01 22.0796154"></polygon>
                <polygon id="Shape" fill="#FFF8F8" points="19.4625 56.05 20.7675 58.4780769 23.175 59.7942308 20.7675 61.1330769 19.4625 63.5384615 18.135 61.1330769 15.75 59.7942308 18.135 58.4780769"></polygon>
                <path d="M47.25,59 L42.75,59 C41.5073593,59 40.5,60.0159692 40.5,61.2692308 C40.5,62.5224923 41.5073593,63.5384615 42.75,63.5384615 L47.25,63.5384615 C48.4926407,63.5384615 49.5,62.5224923 49.5,61.2692308 C49.5,60.0159692 48.4926407,59 47.25,59 Z" id="Shape" fill="#F07979"></path>
                <path d="M47.25,22.6923077 L42.75,22.6923077 C41.5073593,22.6923077 40.5,23.7082769 40.5,24.9615385 C40.5,26.2148 41.5073593,27.2307692 42.75,27.2307692 L47.25,27.2307692 C48.4926407,27.2307692 49.5,26.2148 49.5,24.9615385 C49.5,23.7082769 48.4926407,22.6923077 47.25,22.6923077 Z" id="Shape" fill="#F07979"></path>
                <path d="M47.25,31.7692308 L42.75,31.7692308 C41.5073593,31.7692308 40.5,32.7852 40.5,34.0384615 C40.5,35.2917231 41.5073593,36.3076923 42.75,36.3076923 L47.25,36.3076923 C48.4926407,36.3076923 49.5,35.2917231 49.5,34.0384615 C49.5,32.7852 48.4926407,31.7692308 47.25,31.7692308 Z" id="Shape" fill="#F07979"></path>
                <path d="M47.25,40.8461538 L42.75,40.8461538 C41.5073593,40.8461538 40.5,41.8621231 40.5,43.1153846 C40.5,44.3686462 41.5073593,45.3846154 42.75,45.3846154 L47.25,45.3846154 C48.4926407,45.3846154 49.5,44.3686462 49.5,43.1153846 C49.5,41.8621231 48.4926407,40.8461538 47.25,40.8461538 Z" id="Shape" fill="#F07979"></path>
                <path d="M47.25,49.9230769 L42.75,49.9230769 C41.5073593,49.9230769 40.5,50.9390461 40.5,52.1923077 C40.5,53.4455692 41.5073593,54.4615385 42.75,54.4615385 L47.25,54.4615385 C48.4926407,54.4615385 49.5,53.4455692 49.5,52.1923077 C49.5,50.9390461 48.4926407,49.9230769 47.25,49.9230769 Z" id="Shape" fill="#F07979"></path>
                <path d="M60.75,59 L56.25,59 C55.0073593,59 54,60.0159692 54,61.2692308 C54,62.5224923 55.0073593,63.5384615 56.25,63.5384615 L60.75,63.5384615 C61.9926407,63.5384615 63,62.5224923 63,61.2692308 C63,60.0159692 61.9926407,59 60.75,59 Z" id="Shape" fill="#F07979"></path>
                <path d="M60.75,31.7692308 L56.25,31.7692308 C55.0073593,31.7692308 54,32.7852 54,34.0384615 C54,35.2917231 55.0073593,36.3076923 56.25,36.3076923 L60.75,36.3076923 C61.9926407,36.3076923 63,35.2917231 63,34.0384615 C63,32.7852 61.9926407,31.7692308 60.75,31.7692308 Z" id="Shape" fill="#F07979"></path>
                <path d="M60.75,40.8461538 L56.25,40.8461538 C55.0073593,40.8461538 54,41.8621231 54,43.1153846 C54,44.3686462 55.0073593,45.3846154 56.25,45.3846154 L60.75,45.3846154 C61.9926407,45.3846154 63,44.3686462 63,43.1153846 C63,41.8621231 61.9926407,40.8461538 60.75,40.8461538 Z" id="Shape" fill="#F07979"></path>
                <path d="M60.75,49.9230769 L56.25,49.9230769 C55.0073593,49.9230769 54,50.9390461 54,52.1923077 C54,53.4455692 55.0073593,54.4615385 56.25,54.4615385 L60.75,54.4615385 C61.9926407,54.4615385 63,53.4455692 63,52.1923077 C63,50.9390461 61.9926407,49.9230769 60.75,49.9230769 Z" id="Shape" fill="#F07979"></path>
                <path d="M83.25,36.3076923 L87.75,36.3076923 C88.9926407,36.3076923 90,35.2917231 90,34.0384615 C90,32.7852 88.9926407,31.7692308 87.75,31.7692308 L83.25,31.7692308 C82.0073593,31.7692308 81,32.7852 81,34.0384615 C81,35.2917231 82.0073593,36.3076923 83.25,36.3076923 Z" id="Shape" fill="#F07979"></path>
                <path d="M83.25,45.3846154 L87.75,45.3846154 C88.9926407,45.3846154 90,44.3686462 90,43.1153846 C90,41.8621231 88.9926407,40.8461538 87.75,40.8461538 L83.25,40.8461538 C82.0073593,40.8461538 81,41.8621231 81,43.1153846 C81,44.3686462 82.0073593,45.3846154 83.25,45.3846154 Z" id="Shape" fill="#F07979"></path>
                <path d="M83.25,54.4615385 L87.75,54.4615385 C88.9926407,54.4615385 90,53.4455692 90,52.1923077 C90,50.9390461 88.9926407,49.9230769 87.75,49.9230769 L83.25,49.9230769 C82.0073593,49.9230769 81,50.9390461 81,52.1923077 C81,53.4455692 82.0073593,54.4615385 83.25,54.4615385 Z" id="Shape" fill="#F07979"></path>
                <path d="M74.25,59 L69.75,59 C68.5073593,59 67.5,60.0159692 67.5,61.2692308 C67.5,62.5224923 68.5073593,63.5384615 69.75,63.5384615 L74.25,63.5384615 C75.4926407,63.5384615 76.5,62.5224923 76.5,61.2692308 C76.5,60.0159692 75.4926407,59 74.25,59 Z" id="Shape" fill="#F07979"></path>
                <path d="M96.75,63.5384615 L101.25,63.5384615 C102.492641,63.5384615 103.5,62.5224923 103.5,61.2692308 C103.5,60.0159692 102.492641,59 101.25,59 L96.75,59 C95.5073593,59 94.5,60.0159692 94.5,61.2692308 C94.5,62.5224923 95.5073593,63.5384615 96.75,63.5384615 Z" id="Shape" fill="#F07979"></path>
                <path d="M74.25,40.8461538 L69.75,40.8461538 C68.5073593,40.8461538 67.5,41.8621231 67.5,43.1153846 C67.5,44.3686462 68.5073593,45.3846154 69.75,45.3846154 L74.25,45.3846154 C75.4926407,45.3846154 76.5,44.3686462 76.5,43.1153846 C76.5,41.8621231 75.4926407,40.8461538 74.25,40.8461538 Z" id="Shape" fill="#F07979"></path>
                <path d="M74.25,49.9230769 L69.75,49.9230769 C68.5073593,49.9230769 67.5,50.9390461 67.5,52.1923077 C67.5,53.4455692 68.5073593,54.4615385 69.75,54.4615385 L74.25,54.4615385 C75.4926407,54.4615385 76.5,53.4455692 76.5,52.1923077 C76.5,50.9390461 75.4926407,49.9230769 74.25,49.9230769 Z" id="Shape" fill="#F07979"></path>
                <path d="M33.75,59 L29.25,59 C28.0073593,59 27,60.0159692 27,61.2692308 C27,62.5224923 28.0073593,63.5384615 29.25,63.5384615 L33.75,63.5384615 C34.9926407,63.5384615 36,62.5224923 36,61.2692308 C36,60.0159692 34.9926407,59 33.75,59 Z" id="Shape" fill="#F07979"></path>
                <path d="M33.75,49.9230769 L29.25,49.9230769 C28.0073593,49.9230769 27,50.9390461 27,52.1923077 C27,53.4455692 28.0073593,54.4615385 29.25,54.4615385 L33.75,54.4615385 C34.9926407,54.4615385 36,53.4455692 36,52.1923077 C36,50.9390461 34.9926407,49.9230769 33.75,49.9230769 Z" id="Shape" fill="#F07979"></path>
                <path d="M128.25,0 L6.75,0 C3.02207794,0 9.99200722e-16,3.04790766 0,6.80769231 L0,88.5 C9.99200722e-16,92.2597846 3.02207794,95.3076923 6.75,95.3076923 L53.235,95.3076923 L47.835,113.461538 L36,113.461538 C34.7573593,113.461538 33.75,114.477508 33.75,115.730769 C33.75,116.984031 34.7573593,118 36,118 L99,118 C100.242641,118 101.25,116.984031 101.25,115.730769 C101.25,114.477508 100.242641,113.461538 99,113.461538 L87.165,113.461538 L81.765,95.3076923 L128.25,95.3076923 C131.977922,95.3076923 135,92.2597846 135,88.5 L135,6.80769231 C135,3.04790766 131.977922,0 128.25,0 L128.25,0 Z M6.75,4.53846154 L128.25,4.53846154 C129.492641,4.53846154 130.5,5.55443076 130.5,6.80769231 L130.5,9.07692308 L4.5,9.07692308 L4.5,6.80769231 C4.5,5.55443076 5.50735931,4.53846154 6.75,4.53846154 Z M82.485,113.461538 L52.515,113.461538 L57.915,95.3076923 L77.0625,95.3076923 L82.485,113.461538 Z M128.25,90.7692308 L6.75,90.7692308 C5.50735931,90.7692308 4.5,89.7532615 4.5,88.5 L4.5,77.1538462 L56.43,77.1538462 C57.6726407,77.1538462 58.68,76.1378769 58.68,74.8846154 C58.68,73.6313538 57.6726407,72.6153846 56.43,72.6153846 L4.5,72.6153846 L4.5,13.6153846 L130.5,13.6153846 L130.5,72.6153846 L78.93,72.6153846 C77.6873593,72.6153846 76.68,73.6313538 76.68,74.8846154 C76.68,76.1378769 77.6873593,77.1538462 78.93,77.1538462 L130.5,77.1538462 L130.5,88.5 C130.5,89.7532615 129.492641,90.7692308 128.25,90.7692308 Z" id="Shape" fill="#F07979"></path>
                <path d="M69.75,72.6153846 L65.43,72.6153846 C64.1873593,72.6153846 63.18,73.6313538 63.18,74.8846154 C63.18,76.1378769 64.1873593,77.1538462 65.43,77.1538462 L69.75,77.1538462 C70.9926407,77.1538462 72,76.1378769 72,74.8846154 C72,73.6313538 70.9926407,72.6153846 69.75,72.6153846 Z" id="Shape" fill="#F07979"></path>
                <path d="M83.25,63.5384615 L87.75,63.5384615 C88.9926407,63.5384615 90,62.5224923 90,61.2692308 C90,60.0159692 88.9926407,59 87.75,59 L83.25,59 C82.0073593,59 81,60.0159692 81,61.2692308 C81,62.5224923 82.0073593,63.5384615 83.25,63.5384615 Z" id="Shape" fill="#F07979"></path>
            </g>
        </g>
    </g>
</svg>