<?xml version="1.0" encoding="UTF-8"?>
<svg width="324px" height="151px" viewBox="0 0 324 151" version="1.1" xmlns="http://www.w3.org/2000/svg" xmlns:xlink="http://www.w3.org/1999/xlink">
    <!-- Generator: Sketch 41.2 (35397) - http://www.bohemiancoding.com/sketch -->
    <title>Page 1</title>
    <desc>Created with Sketch.</desc>
    <defs></defs>
    <g id="Page-1" stroke="none" stroke-width="1" fill="none" fill-rule="evenodd">
        <g>
            <g id="Group-3" transform="translate(0.000000, 34.201607)" fill="#F8F8F8">
                <path d="M44.8463588,0.304993886 L273.943215,0.304993886 C278.070165,0.304993886 281.415465,3.65278428 281.415465,7.78218166 C281.415465,11.9120856 278.070165,15.2593694 273.943215,15.2593694 L234.616703,15.2593694 C234.616703,20.9930114 229.971353,25.6416227 224.241109,25.6416227 L211.760527,25.6416227 C208.369159,25.6416227 205.620221,28.3921904 205.620221,31.7850638 C205.620221,35.1784437 208.369159,37.9290114 211.760527,37.9290114 L248.987621,37.9290114 C253.175321,37.9290114 256.570234,41.3259371 256.570234,45.5161205 C256.570234,49.7063039 253.175321,53.1032297 248.987621,53.1032297 L235.29609,53.1032297 C232.231759,53.1032297 229.748096,55.5888716 229.748096,58.6545135 C229.748096,61.720662 232.231759,64.2057974 235.29609,64.2057974 L315.308903,64.2057974 C319.99374,64.2057974 323.792134,68.0064437 323.792134,72.6945659 C323.792134,77.3831948 319.99374,81.1833345 315.308903,81.1833345 L264.837296,81.1833345 C264.837296,88.9173432 258.570934,95.1874218 250.841509,95.1874218 L245.848871,95.1874218 L245.848871,115.4935 L74.5566525,115.4935 L74.829015,98.2875092 L69.5057963,98.2875092 C61.4847713,98.2875092 54.9824963,91.7813782 54.9824963,83.7561031 L8.8737525,83.7561031 C3.9732525,83.7561031 0.0002025,79.7806969 0.0002025,74.8767843 C0.0002025,69.9733782 3.9732525,65.9974655 8.8737525,65.9974655 L39.7165275,65.9974655 C43.2749588,65.9974655 46.1600775,63.1111424 46.1600775,59.5506009 C46.1600775,55.9900594 43.2749588,53.1032297 39.7165275,53.1032297 L25.0312275,53.1032297 C20.4365025,53.1032297 16.7120213,49.3765397 16.7120213,44.7785834 C16.7120213,40.1811336 20.4365025,36.4544437 25.0312275,36.4544437 L95.4683213,36.4544437 C98.8693088,36.4544437 101.626853,33.6952646 101.626853,30.2917537 C101.626853,26.8882428 98.8693088,24.1295703 95.4683213,24.1295703 L77.5764338,24.1295703 C70.8038212,24.1295703 65.3140463,18.6360332 65.3140463,11.8599109 L44.8463588,11.8599109 C41.65749,11.8599109 39.0725775,9.2734655 39.0725775,6.08270568 C39.0725775,2.8914393 41.65749,0.304993886 44.8463588,0.304993886" id="Fill-1"></path>
            </g>
            <path d="M292.187351,87.2261188 L271.876601,87.2261188 C267.74712,87.2261188 264.398783,83.8763022 264.398783,79.7438655 C264.398783,75.6119354 267.74712,72.2621188 271.876601,72.2621188 L292.187351,72.2621188 C296.316833,72.2621188 299.66517,75.6119354 299.66517,79.7438655 C299.66517,83.8763022 296.316833,87.2261188 292.187351,87.2261188" id="Fill-4" fill="#EDF0F4"></path>
            <path d="M43.4057231,144.681983 L23.0949731,144.681983 C18.9654919,144.681983 15.6176606,141.332166 15.6176606,137.199729 C15.6176606,133.067799 18.9654919,129.717983 23.0949731,129.717983 L43.4057231,129.717983 C47.5357106,129.717983 50.8835419,133.067799 50.8835419,137.199729 C50.8835419,141.332166 47.5357106,144.681983 43.4057231,144.681983" id="Fill-6" fill="#EDF0F4"></path>
            <path d="M46.6452169,65.7746795 L32.0636981,65.7746795 C28.7366231,65.7746795 26.0388169,63.0757799 26.0388169,59.7467319 C26.0388169,56.4171773 28.7366231,53.7182777 32.0636981,53.7182777 L46.6452169,53.7182777 C49.9722919,53.7182777 52.6695919,56.4171773 52.6695919,59.7467319 C52.6695919,63.0757799 49.9722919,65.7746795 46.6452169,65.7746795" id="Fill-8" fill="#EDF0F4"></path>
            <g id="12-Office-Coffee-Cup-Tea-Hot-Drink" transform="translate(84.000000, 0.000000)">
                <g id="Layer_1">
                    <polygon id="Shape" fill="#FFC0C0" points="117.575521 115.067879 102.239583 138.042777 43.4518229 138.042777 30.671875 115.067879 17.8919271 61.4597848 127.799479 61.4597848"></polygon>
                    <rect id="Rectangle-path" fill="#FFD9D9" transform="translate(74.123698, 107.409580) rotate(-90.000000) translate(-74.123698, -107.409580) " x="71.5677083" y="61.4597848" width="5.11197917" height="91.8995902" rx="1"></rect>
                    <polygon id="Shape" fill="#FFA9A9" points="33.6368229 120.377633 43.4518229 138.042777 102.239583 138.042777 114.022695 120.377633"></polygon>
                    <polygon id="Shape" fill="#FFA9A9" points="132.911458 148.253842 12.7799479 148.253842 5.11197917 138.042777 138.023438 138.042777"></polygon>
                    <path d="M38.3398437,107.40958 L17.8919271,107.40958 C16.480293,107.40958 15.3359375,106.266667 15.3359375,104.856814 L15.3359375,90.765543 C15.339523,89.9888078 15.6970032,89.255958 16.3072135,88.7743852 L26.6845312,80.6055328 C27.6183181,79.8588478 28.9457314,79.8588478 29.8795182,80.6055328 L39.9501172,88.7743852 C40.5507529,89.2610192 40.8984631,89.9931055 40.8958333,90.765543 L40.8958333,104.856814 C40.8958333,106.266667 39.7514778,107.40958 38.3398437,107.40958 Z" id="Shape" fill="#FFD9D9"></path>
                    <path d="M117.575521,71.6708504 C117.575521,70.2609965 116.431165,69.118084 115.019531,69.118084 L61.34375,69.118084 C59.9321159,69.118084 58.7877604,70.2609965 58.7877604,71.6708504 C58.7877604,73.0807044 59.9321159,74.2236168 61.34375,74.2236168 L115.019531,74.2236168 C116.431165,74.2236168 117.575521,73.0807044 117.575521,71.6708504 Z" id="Shape" fill="#F07979"></path>
                    <path d="M53.6757812,71.6708504 C53.6757812,70.2609965 52.5314257,69.118084 51.1197917,69.118084 L40.8958333,69.118084 C39.4841993,69.118084 38.3398438,70.2609965 38.3398438,71.6708504 C38.3398438,73.0807044 39.4841993,74.2236168 40.8958333,74.2236168 L51.1197917,74.2236168 C52.5314257,74.2236168 53.6757812,73.0807044 53.6757812,71.6708504 Z" id="Shape" fill="#F07979"></path>
                    <path d="M117.907799,119.790497 C126.547044,118.207782 140.579427,115.067879 145.538047,109.962346 C151.517846,104.107051 152.631164,94.8925716 148.217609,87.7846894 C143.804055,80.6768071 135.044518,77.5773067 127.134922,80.3247285 L130.483268,65.0081301 C130.821265,63.4768062 130.435931,61.875294 129.438176,60.6645502 C128.440421,59.4538064 126.940927,58.7681415 125.371289,58.8049078 L40.8958333,58.8049078 C40.8958332,54.575346 37.4627667,51.1466088 33.2278646,51.1466088 C28.9929624,51.1466088 25.5598959,54.575346 25.5598958,58.8049078 L19.4766406,58.8049078 C17.9055201,58.8061204 16.4222227,59.5288158 15.454197,60.7647315 C14.4861712,62.0006472 14.1409513,63.6124902 14.5180208,65.1357684 L19.0421224,83.2348822 L14.7225,86.7832275 C13.5020792,87.7463729 12.7871189,89.2120725 12.7799479,90.765543 L12.7799479,104.856814 C12.7799479,107.676521 15.0686589,109.962346 17.8919271,109.962346 L25.7132552,109.962346 L26.9145703,114.761547 C28.9809952,122.801408 33.4364557,130.027952 39.6945182,135.49001 L3.0416276,135.49001 C2.07349017,135.49001 1.18844524,136.036308 0.755481021,136.901145 C0.322516797,137.765981 0.415953476,138.800903 0.996835938,139.574436 L4.06402344,143.658863 C7.44299227,148.158473 12.7459504,150.806609 18.3775651,150.806609 L125.729128,150.806609 C131.360742,150.806609 136.6637,148.158473 140.042669,143.658863 L143.135417,139.574436 C143.716299,138.800903 143.809736,137.765981 143.376772,136.901145 C142.943807,136.036308 142.058762,135.49001 141.090625,135.49001 L106.917044,135.49001 C111.771295,131.197752 115.537822,125.817537 117.907799,119.790497 L117.907799,119.790497 Z M141.934102,88.263832 C144.361392,90.661439 145.727292,93.9293115 145.727292,97.3389165 C145.727292,100.748522 144.361392,104.016394 141.934102,106.414001 C138.815794,109.528376 128.975234,112.387474 119.671432,114.250994 C119.671432,114.021245 119.799232,113.817024 119.850352,113.587275 L125.754688,86.6555891 C130.837941,83.2543791 137.621788,83.9286972 141.934102,88.263832 Z M33.2278646,56.354252 C34.6394987,56.354252 35.7838542,57.4971645 35.7838542,58.9070184 L30.671875,58.9070184 C30.671875,57.4971645 31.8162305,56.354252 33.2278646,56.354252 Z M19.4766406,64.0125512 L25.5598958,64.0125512 L25.5598958,78.3335707 C25.4020975,78.4104258 25.2485196,78.4956392 25.0998177,78.5888473 L23.4639844,79.8907582 L19.4766406,64.0125512 Z M17.8919271,90.7910707 L28.2692448,82.6222182 L38.3398437,90.765543 L38.3398437,104.856814 L17.8919271,104.856814 L17.8919271,90.7910707 Z M125.729128,145.701076 L18.3775651,145.701076 C14.3549832,145.701076 10.5671559,143.80955 8.15360677,140.595543 L135.953086,140.595543 C133.539537,143.80955 129.75171,145.701076 125.729128,145.701076 L125.729128,145.701076 Z M48.1804036,135.49001 C40.0521554,130.607627 34.1824484,122.717827 31.8476302,113.536219 L30.9785938,109.962346 L38.3398438,109.962346 C41.1631119,109.962346 43.4518229,107.676521 43.4518229,104.856814 L43.4518229,90.765543 C43.4493682,89.2296098 42.7546981,87.7763923 41.5603906,86.8087551 L31.4897917,78.6399027 C31.2399765,78.463358 30.9747927,78.3095745 30.6974349,78.1804047 L30.6974349,64.0125512 L125.473529,64.0125512 L114.866172,112.515113 C112.747192,122.123965 106.755492,130.435277 98.3033594,135.49001 L48.1804036,135.49001 Z" id="Shape" fill="#F07979"></path>
                    <path d="M77.5998438,49.8191701 C76.9514983,50.5607796 76.7879416,51.6086537 77.179509,52.5121683 C77.5710764,53.4156828 78.4479688,54.013781 79.4330904,54.0492587 C80.4182119,54.0847364 81.3359589,53.5512696 81.7916667,52.6782684 L84.9866536,48.0067059 C86.7172022,45.4273957 86.7172022,42.0597764 84.9866536,39.4804662 L83.6319792,37.4127254 C83.0589275,36.5549018 83.0589275,35.4369783 83.6319792,34.5791547 L84.9866536,32.5624693 C86.6944645,29.9948594 86.6944645,26.6548947 84.9866536,24.0872848 L83.3763802,21.5345184 C82.8714138,20.7723612 82.812923,19.7987439 83.2230208,18.981752 L85.7790104,14.0549129 C87.0017285,11.5994343 86.8164966,8.67840828 85.2933724,6.39661373 L81.7916667,1.34213627 C81.3097211,0.527940447 80.4165282,0.0466159214 79.4705597,0.0913362211 C78.5245911,0.136056521 77.6809136,0.699490928 77.2781264,1.55551215 C76.8753392,2.41153338 76.9794688,3.41981925 77.548724,4.17570697 L81.0248698,9.28123975 C81.5298362,10.043397 81.588327,11.0170143 81.1782292,11.8340061 L78.6222396,16.7608453 C77.3919461,19.2118209 77.5674185,22.1326727 79.0823177,24.4191445 L80.6925911,26.9719109 C81.2656428,27.8297345 81.2656428,28.9476579 80.6925911,29.8054816 L79.3379167,31.822167 C77.6301058,34.3897769 77.6301058,37.7297416 79.3379167,40.2973514 L80.6925911,42.3650922 C81.2656428,43.2229158 81.2656428,44.3408393 80.6925911,45.1986629 L77.5998438,49.8191701 Z" id="Shape" fill="#F07979"></path>
                    <path d="M65.4844531,26.9208555 C66.0575048,27.7786792 66.0575048,28.8966026 65.4844531,29.7544262 L64.1297786,31.7711117 C62.4219678,34.3387215 62.4219678,37.6786863 64.1297786,40.2462961 L65.4844531,42.3140369 C66.0575048,43.1718605 66.0575048,44.289784 65.4844531,45.1476076 L62.2894661,49.8191701 C61.6034629,50.5524134 61.4112458,51.6190561 61.7982201,52.5451708 C62.1851943,53.4712855 63.0795628,54.085046 64.0839427,54.1137482 C65.0883225,54.1424503 66.0163666,53.5807689 66.4557292,52.6782684 L69.6507161,48.0067059 C71.3812647,45.4273957 71.3812647,42.0597764 69.6507161,39.4804662 L68.2960417,37.4127254 C67.72299,36.5549018 67.72299,35.4369783 68.2960417,34.5791547 L69.6507161,32.5624693 C71.358527,29.9948594 71.358527,26.6548947 69.6507161,24.0872848 L66.4557292,19.211501 C65.9607166,18.4331309 65.0838788,17.9818815 64.1619208,18.0310324 C63.2399628,18.0801832 62.4162055,18.6220936 62.006971,19.4486704 C61.5977366,20.2752472 61.6666416,21.2579968 62.1872266,22.0195441 L65.4844531,26.9208555 Z" id="Shape" fill="#F07979"></path>
                    <path d="M50.1485156,42.3140369 C50.7215673,43.1718605 50.7215673,44.289784 50.1485156,45.1476076 L46.9535286,49.8191701 C46.2675254,50.5524134 46.0753083,51.6190561 46.4622826,52.5451708 C46.8492568,53.4712855 47.7436253,54.085046 48.7480052,54.1137482 C49.752385,54.1424503 50.6804291,53.5807689 51.1197917,52.6782684 L54.3147786,48.0067059 C56.0453272,45.4273957 56.0453272,42.0597764 54.3147786,39.4804662 L51.1197917,34.6046824 C50.6247791,33.8263122 49.7479413,33.3750629 48.8259833,33.4242137 C47.9040253,33.4733646 47.080268,34.015275 46.6710335,34.8418518 C46.2617991,35.6684286 46.3307041,36.6511781 46.8512891,37.4127254 L50.1485156,42.3140369 Z" id="Shape" fill="#F07979"></path>
                    <path d="M95.0572526,53.8014857 C95.9074414,53.802765 96.7026187,53.3817568 97.178724,52.6782684 L100.373711,48.0067059 C102.10426,45.4273957 102.10426,42.0597764 100.373711,39.4804662 L99.0190365,37.4127254 C98.4459848,36.5549018 98.4459848,35.4369783 99.0190365,34.5791547 L102.239583,29.7799539 C102.929945,28.6136615 102.587773,27.1118853 101.460087,26.3587812 C100.332402,25.6056772 98.8120685,25.8636141 97.9966406,26.9463832 L94.7760938,31.7966393 C93.0682829,34.3642492 93.0682829,37.7042139 94.7760938,40.2718238 L96.1307682,42.3395645 C96.7038199,43.1973882 96.7038199,44.3153116 96.1307682,45.1731352 L92.9357813,49.8446977 C92.420036,50.6268326 92.3745092,51.6282241 92.8171613,52.4538212 C93.2598135,53.2794184 94.119569,53.7966571 95.0572526,53.8014857 Z" id="Shape" fill="#F07979"></path>
                    <path d="M40.8958333,115.067879 C39.4841993,115.067879 38.3398438,116.210792 38.3398438,117.620645 L38.3398438,122.726178 C38.3398438,124.136032 39.4841993,125.278945 40.8958333,125.278945 C42.3074674,125.278945 43.4518229,124.136032 43.4518229,122.726178 L43.4518229,117.620645 C43.4518229,116.210792 42.3074674,115.067879 40.8958333,115.067879 Z" id="Shape" fill="#F07979"></path>
                    <path d="M53.6757813,115.067879 C52.2641472,115.067879 51.1197917,116.210792 51.1197917,117.620645 L51.1197917,122.726178 C51.1197917,124.136032 52.2641472,125.278945 53.6757813,125.278945 C55.0874153,125.278945 56.2317708,124.136032 56.2317708,122.726178 L56.2317708,117.620645 C56.2317708,116.210792 55.0874153,115.067879 53.6757813,115.067879 Z" id="Shape" fill="#F07979"></path>
                    <path d="M66.4557292,115.067879 C65.0440951,115.067879 63.8997396,116.210792 63.8997396,117.620645 L63.8997396,122.726178 C63.8997396,124.136032 65.0440951,125.278945 66.4557292,125.278945 C67.8673632,125.278945 69.0117188,124.136032 69.0117188,122.726178 L69.0117188,117.620645 C69.0117188,116.210792 67.8673632,115.067879 66.4557292,115.067879 Z" id="Shape" fill="#F07979"></path>
                    <path d="M79.2356771,115.067879 C77.824043,115.067879 76.6796875,116.210792 76.6796875,117.620645 L76.6796875,122.726178 C76.6796875,124.136032 77.824043,125.278945 79.2356771,125.278945 C80.6473112,125.278945 81.7916667,124.136032 81.7916667,122.726178 L81.7916667,117.620645 C81.7916667,116.210792 80.6473112,115.067879 79.2356771,115.067879 Z" id="Shape" fill="#F07979"></path>
                    <path d="M92.015625,115.067879 C90.6039909,115.067879 89.4596354,116.210792 89.4596354,117.620645 L89.4596354,122.726178 C89.4596354,124.136032 90.6039909,125.278945 92.015625,125.278945 C93.4272591,125.278945 94.5716146,124.136032 94.5716146,122.726178 L94.5716146,117.620645 C94.5716146,116.210792 93.4272591,115.067879 92.015625,115.067879 Z" id="Shape" fill="#F07979"></path>
                    <path d="M107.351563,122.726178 L107.351563,117.620645 C107.351563,116.210792 106.207207,115.067879 104.795573,115.067879 C103.383939,115.067879 102.239583,116.210792 102.239583,117.620645 L102.239583,122.726178 C102.239583,124.136032 103.383939,125.278945 104.795573,125.278945 C106.207207,125.278945 107.351563,124.136032 107.351563,122.726178 Z" id="Shape" fill="#F07979"></path>
                </g>
            </g>
        </g>
    </g>
</svg>