<?xml version="1.0" encoding="UTF-8"?>
<svg width="324px" height="140px" viewBox="0 0 324 140" version="1.1" xmlns="http://www.w3.org/2000/svg" xmlns:xlink="http://www.w3.org/1999/xlink">
    <!-- Generator: Sketch 41.2 (35397) - http://www.bohemiancoding.com/sketch -->
    <title>Page 1</title>
    <desc>Created with Sketch.</desc>
    <defs></defs>
    <g id="Page-1" stroke="none" stroke-width="1" fill="none" fill-rule="evenodd">
        <g>
            <g id="Group-3" transform="translate(0.000000, 11.201607)" fill="#F8F8F8">
                <path d="M44.8463588,0.304993886 L273.943215,0.304993886 C278.070165,0.304993886 281.415465,3.65278428 281.415465,7.78218166 C281.415465,11.9120856 278.070165,15.2593694 273.943215,15.2593694 L234.616703,15.2593694 C234.616703,20.9930114 229.971353,25.6416227 224.241109,25.6416227 L211.760527,25.6416227 C208.369159,25.6416227 205.620221,28.3921904 205.620221,31.7850638 C205.620221,35.1784437 208.369159,37.9290114 211.760527,37.9290114 L248.987621,37.9290114 C253.175321,37.9290114 256.570234,41.3259371 256.570234,45.5161205 C256.570234,49.7063039 253.175321,53.1032297 248.987621,53.1032297 L235.29609,53.1032297 C232.231759,53.1032297 229.748096,55.5888716 229.748096,58.6545135 C229.748096,61.720662 232.231759,64.2057974 235.29609,64.2057974 L315.308903,64.2057974 C319.99374,64.2057974 323.792134,68.0064437 323.792134,72.6945659 C323.792134,77.3831948 319.99374,81.1833345 315.308903,81.1833345 L264.837296,81.1833345 C264.837296,88.9173432 258.570934,95.1874218 250.841509,95.1874218 L245.848871,95.1874218 L245.848871,115.4935 L74.5566525,115.4935 L74.829015,98.2875092 L69.5057963,98.2875092 C61.4847713,98.2875092 54.9824963,91.7813782 54.9824963,83.7561031 L8.8737525,83.7561031 C3.9732525,83.7561031 0.0002025,79.7806969 0.0002025,74.8767843 C0.0002025,69.9733782 3.9732525,65.9974655 8.8737525,65.9974655 L39.7165275,65.9974655 C43.2749588,65.9974655 46.1600775,63.1111424 46.1600775,59.5506009 C46.1600775,55.9900594 43.2749588,53.1032297 39.7165275,53.1032297 L25.0312275,53.1032297 C20.4365025,53.1032297 16.7120213,49.3765397 16.7120213,44.7785834 C16.7120213,40.1811336 20.4365025,36.4544437 25.0312275,36.4544437 L95.4683213,36.4544437 C98.8693088,36.4544437 101.626853,33.6952646 101.626853,30.2917537 C101.626853,26.8882428 98.8693088,24.1295703 95.4683213,24.1295703 L77.5764338,24.1295703 C70.8038212,24.1295703 65.3140463,18.6360332 65.3140463,11.8599109 L44.8463588,11.8599109 C41.65749,11.8599109 39.0725775,9.2734655 39.0725775,6.08270568 C39.0725775,2.8914393 41.65749,0.304993886 44.8463588,0.304993886" id="Fill-1"></path>
            </g>
            <path d="M292.187351,64.2261188 L271.876601,64.2261188 C267.74712,64.2261188 264.398783,60.8763022 264.398783,56.7438655 C264.398783,52.6119354 267.74712,49.2621188 271.876601,49.2621188 L292.187351,49.2621188 C296.316833,49.2621188 299.66517,52.6119354 299.66517,56.7438655 C299.66517,60.8763022 296.316833,64.2261188 292.187351,64.2261188" id="Fill-4" fill="#EDF0F4"></path>
            <path d="M43.4057231,121.681983 L23.0949731,121.681983 C18.9654919,121.681983 15.6176606,118.332166 15.6176606,114.199729 C15.6176606,110.067799 18.9654919,106.717983 23.0949731,106.717983 L43.4057231,106.717983 C47.5357106,106.717983 50.8835419,110.067799 50.8835419,114.199729 C50.8835419,118.332166 47.5357106,121.681983 43.4057231,121.681983" id="Fill-6" fill="#EDF0F4"></path>
            <path d="M46.6452169,42.7746795 L32.0636981,42.7746795 C28.7366231,42.7746795 26.0388169,40.0757799 26.0388169,36.7467319 C26.0388169,33.4171773 28.7366231,30.7182777 32.0636981,30.7182777 L46.6452169,30.7182777 C49.9722919,30.7182777 52.6695919,33.4171773 52.6695919,36.7467319 C52.6695919,40.0757799 49.9722919,42.7746795 46.6452169,42.7746795" id="Fill-8" fill="#EDF0F4"></path>
            <g id="47-Plant-Pot-Green-Interior-Home-House" transform="translate(100.000000, 0.000000)">
                <path d="M50.3652,33.1926875 C46.9956231,39.617375 35.8762385,40.439875 25.5285462,35.0345625 C15.1808538,29.62925 9.5247,20.0414375 12.8942769,13.621125 C16.2638538,7.198625 27.3832385,6.3739375 37.7309308,11.77925 C48.0786231,17.1845625 53.7347769,26.7701875 50.3652,33.1926875" id="Fill-104" fill="#FFC0C0"></path>
                <path d="M29.3359269,19.58075 C37.8420808,24.0235625 44.94735,29.2298125 49.7485038,34.167 C49.9721192,33.856375 50.1847731,33.537 50.3645423,33.1935625 C53.7341192,26.7710625 48.0779654,17.18325 37.7302731,11.780125 C27.76185,6.573875 17.0984654,7.1623125 13.3167346,12.952625 C18.3371192,14.466375 23.8025423,16.688875 29.3359269,19.58075" id="Fill-106" fill="#FFD9D9"></path>
                <path d="M97.7611385,35.203 C99.6903692,41.3564375 94.7883692,48.363 86.8127538,50.8501875 C78.8371385,53.3395625 70.8089077,50.371125 68.8796769,44.2155 C66.9504462,38.06425 71.8546385,31.0576875 79.8280615,28.5705 C87.8036769,26.081125 95.8319077,29.0495625 97.7611385,35.203" id="Fill-108" fill="#FFC0C0"></path>
                <path d="M81.2223692,39.0715938 C87.0385615,37.2559688 92.6508692,35.9762813 97.7589462,35.1975313 C95.8253308,29.0484688 87.8014846,26.0822188 79.8280615,28.5694063 C72.0585231,30.9953438 67.2244846,37.7044063 68.7634846,43.7397188 C72.5781,42.0531563 76.7566385,40.4650313 81.2223692,39.0715938" id="Fill-110" fill="#FFD9D9"></path>
                <path d="M76.4247231,4.15078125 C79.8469154,6.65109375 79.2703385,13.2376563 75.1400308,18.8682813 C71.0097231,24.4967188 64.8888,27.0320313 61.4709923,24.5339063 C58.0488,22.0357813 58.6253769,15.4470313 62.7556846,9.81859375 C66.8838,4.19015625 73.0025308,1.65265625 76.4247231,4.15078125" id="Fill-112" fill="#FFD9D9"></path>
                <polygon id="Fill-114" fill="#FFC0C0" points="8.76923077 80.9375 105.230769 80.9375 98.6538462 131.25 92.0769231 137.8125 21.9230769 137.8125 15.3461538 131.25"></polygon>
                <polygon id="Fill-116" fill="#FFD9D9" points="37.2692308 137.8125 19.7307692 137.8125 13.1538462 124.6875 8.76923077 80.9375 30.6923077 80.9375"></polygon>
                <polygon id="Fill-118" fill="#FFA9A9" points="104.595 87.5 105.230769 80.9375 8.76923077 80.9375 9.40719231 87.5"></polygon>
                <polygon id="Fill-120" fill="#FFA9A9" points="70.1538462 80.9375 67.9615385 137.8125 92.0769231 137.8125 98.6538462 131.25 105.230769 80.9375"></polygon>
                <path d="M107.423077,80.9375 L6.57692308,80.9375 C4.15661538,80.9375 2.19230769,78.9775 2.19230769,76.5625 L2.19230769,63.4375 C2.19230769,61.0225 4.15661538,59.0625 6.57692308,59.0625 L107.423077,59.0625 C109.843385,59.0625 111.807692,61.0225 111.807692,63.4375 L111.807692,76.5625 C111.807692,78.9775 109.843385,80.9375 107.423077,80.9375" id="Fill-122" fill="#FFD9D9"></path>
                <path d="M109.615385,76.5625 C109.615385,77.77 108.633231,78.75 107.423077,78.75 C106.372962,78.75 105.467538,79.49375 105.270231,80.52625 L95.6766923,130.302813 C95.0825769,133.387188 92.3663077,135.625 89.2181538,135.625 L24.7818462,135.625 C21.6336923,135.625 18.9174231,133.387188 18.3233077,130.302813 L9.22961538,83.125 L81.1153846,83.125 C82.3277308,83.125 83.3076923,82.1471875 83.3076923,80.9375 C83.3076923,79.7278125 82.3277308,78.75 81.1153846,78.75 L6.57692308,78.75 C5.36896154,78.75 4.38461538,77.77 4.38461538,76.5625 L4.38461538,63.4375 C4.38461538,62.23 5.36896154,61.25 6.57692308,61.25 L107.423077,61.25 C108.633231,61.25 109.615385,62.23 109.615385,63.4375 L109.615385,76.5625 Z M62.9608846,11.8453125 C65.3768077,7.6671875 71.3004231,6.041875 74.1855,5.4796875 C75.1391538,8.2490625 76.6869231,14.1815625 74.271,18.361875 C72.4097308,21.5775 68.4811154,23.275 65.4513462,24.1434375 C66.5453077,21.77 67.7510769,19.4425 69.1234615,17.19375 C69.7548462,16.1634375 69.4281923,14.8159375 68.3934231,14.188125 C67.3652308,13.558125 66.0125769,13.88625 65.3811923,14.9165625 C64.1666538,16.9071875 63.0858462,18.9678125 62.073,21.0546875 C61.5117692,18.055625 61.4131154,14.5228125 62.9608846,11.8453125 L62.9608846,11.8453125 Z M25.9788462,33.3878125 C18.0273462,28.805 15.3921923,17.2396875 14.6753077,12.9828125 C18.7266923,11.4646875 30.0609231,7.9559375 38.0365385,12.5496875 C44.7471923,16.415 47.6629615,25.239375 48.8446154,30.4653125 C47.8690385,29.7434375 46.8868846,29.0303125 45.8784231,28.3565625 L35.2742308,21.2909375 C34.2701538,20.6259375 32.9065385,20.8928125 32.2356923,21.896875 C31.5626538,22.903125 31.8345,24.2615625 32.8407692,24.9309375 L43.4427692,31.9965625 C44.3942308,32.62875 45.3193846,33.3025 46.2357692,33.980625 C41.0093077,35.51625 32.3913462,37.0825 25.9788462,33.3878125 L25.9788462,33.3878125 Z M81.0386538,30.9225 C87.4073077,29.2228125 94.6287692,33.5540625 97.5423462,35.5709375 C96.0296538,38.77125 91.9322308,46.13 85.5767308,47.8275 C80.3963077,49.2165625 74.6458846,46.6025 71.1140769,44.49375 C72.1313077,44.1284375 73.1507308,43.763125 74.1855,43.4459375 L80.4818077,41.523125 C81.6371538,41.1709375 82.2904615,39.948125 81.9353077,38.7909375 C81.5801538,37.6359375 80.3590385,36.981875 79.1971154,37.340625 L72.9008077,39.2634375 C72.1905,39.4821875 71.4955385,39.7425 70.7918077,39.9809375 C72.8920385,36.509375 76.3493077,32.1759375 81.0386538,30.9225 L81.0386538,30.9225 Z M107.423077,56.875 L59.1923077,56.875 L59.1923077,52.49125 C59.1923077,51.6840625 59.2449231,50.8790625 59.2756154,50.0740625 C61.4986154,48.750625 63.783,47.534375 66.1419231,46.4734375 C68.7639231,48.3590625 75.4329231,52.5875 82.5338077,52.5875 C83.9193462,52.5875 85.3224231,52.425625 86.7123462,52.05375 C97.0381154,49.293125 102.089192,36.1725 102.299654,35.616875 L102.854308,34.1490625 L101.639769,33.1559375 C101.177192,32.7775 90.2266154,23.9334375 79.9030385,26.69625 C70.8795,29.1090625 65.8854231,39.4296875 64.6270385,42.3675 C62.9411538,43.1178125 61.2881538,43.9359375 59.6658462,44.8109375 C60.2775,39.4428125 61.5161538,34.1775 63.3752308,29.12 C66.7075385,28.53375 74.5932692,26.551875 78.0680769,20.549375 C82.4351538,13.0003125 77.7896538,2.58125 77.5923462,2.1415625 L76.9434231,0.713125 L75.3803077,0.86625 C74.898,0.914375 63.5308846,2.1109375 59.1616154,9.6578125 C55.3755,16.200625 58.3614231,24.8959375 59.3523462,27.383125 C58.1838462,30.5265625 57.2301923,33.7465625 56.5089231,37.02125 C55.6911923,36.21625 54.8449615,35.4396875 53.9877692,34.6740625 L53.9351538,34.1315625 C53.8606154,33.3746875 51.9752308,15.5290625 40.2288462,8.7609375 C28.4868462,1.9971875 12.0511154,9.288125 11.3583462,9.6009375 L9.92676923,10.2484375 L10.0802308,11.8059375 C10.1547692,12.5628125 12.0423462,30.4084375 23.7865385,37.1765625 C27.4849615,39.3071875 31.6459615,40.044375 35.6337692,40.044375 C41.6604231,40.044375 47.2858846,38.3621875 50.3288077,37.261875 C52.155,38.85 53.8935,40.5321875 55.5399231,42.30625 C55.1825769,44.8153125 54.9896538,47.3528125 54.8975769,49.90125 C53.5449231,49.35 52.2076154,48.7659375 50.9053846,48.1315625 C49.818,47.595625 48.5048077,48.0528125 47.9742692,49.135625 C47.4415385,50.220625 47.8931538,51.533125 48.9805385,52.0625 C50.8703077,52.9834375 52.8302308,53.8059375 54.8076923,54.5628125 L54.8076923,56.875 L6.57692308,56.875 C2.95084615,56.875 0,59.819375 0,63.4375 L0,76.5625 C0,79.5353125 1.99280769,82.0553125 4.71346154,82.858125 L14.0176154,131.1275 C15.0085385,136.270313 19.5356538,140 24.7818462,140 L89.2181538,140 C94.4643462,140 98.9914615,136.270313 99.9823846,131.1275 L109.286538,82.858125 C112.009385,82.0553125 114,79.5353125 114,76.5625 L114,63.4375 C114,59.819375 111.049154,56.875 107.423077,56.875 L107.423077,56.875 Z" id="Fill-124" fill="#F07979"></path>
                <path d="M13.1538462,65.625 C11.9436923,65.625 10.9615385,66.6028125 10.9615385,67.8125 L10.9615385,72.1875 C10.9615385,73.3971875 11.9436923,74.375 13.1538462,74.375 C14.364,74.375 15.3461538,73.3971875 15.3461538,72.1875 L15.3461538,67.8125 C15.3461538,66.6028125 14.364,65.625 13.1538462,65.625" id="Fill-126" fill="#F07979"></path>
                <path d="M24.1153846,65.625 C22.9052308,65.625 21.9230769,66.6028125 21.9230769,67.8125 L21.9230769,72.1875 C21.9230769,73.3971875 22.9052308,74.375 24.1153846,74.375 C25.3255385,74.375 26.3076923,73.3971875 26.3076923,72.1875 L26.3076923,67.8125 C26.3076923,66.6028125 25.3255385,65.625 24.1153846,65.625" id="Fill-128" fill="#F07979"></path>
                <path d="M35.0769231,65.625 C33.8667692,65.625 32.8846154,66.6028125 32.8846154,67.8125 L32.8846154,72.1875 C32.8846154,73.3971875 33.8667692,74.375 35.0769231,74.375 C36.2870769,74.375 37.2692308,73.3971875 37.2692308,72.1875 L37.2692308,67.8125 C37.2692308,66.6028125 36.2870769,65.625 35.0769231,65.625" id="Fill-130" fill="#F07979"></path>
                <path d="M46.0384615,65.625 C44.8283077,65.625 43.8461538,66.6028125 43.8461538,67.8125 L43.8461538,72.1875 C43.8461538,73.3971875 44.8283077,74.375 46.0384615,74.375 C47.2486154,74.375 48.2307692,73.3971875 48.2307692,72.1875 L48.2307692,67.8125 C48.2307692,66.6028125 47.2486154,65.625 46.0384615,65.625" id="Fill-132" fill="#F07979"></path>
                <path d="M57,65.625 C55.7898462,65.625 54.8076923,66.6028125 54.8076923,67.8125 L54.8076923,72.1875 C54.8076923,73.3971875 55.7898462,74.375 57,74.375 C58.2123462,74.375 59.1923077,73.3971875 59.1923077,72.1875 L59.1923077,67.8125 C59.1923077,66.6028125 58.2123462,65.625 57,65.625" id="Fill-134" fill="#F07979"></path>
                <path d="M67.9615385,65.625 C66.7491923,65.625 65.7692308,66.6028125 65.7692308,67.8125 L65.7692308,72.1875 C65.7692308,73.3971875 66.7491923,74.375 67.9615385,74.375 C69.1738846,74.375 70.1538462,73.3971875 70.1538462,72.1875 L70.1538462,67.8125 C70.1538462,66.6028125 69.1738846,65.625 67.9615385,65.625" id="Fill-136" fill="#F07979"></path>
                <path d="M78.9230769,65.625 C77.7107308,65.625 76.7307692,66.6028125 76.7307692,67.8125 L76.7307692,72.1875 C76.7307692,73.3971875 77.7107308,74.375 78.9230769,74.375 C80.1354231,74.375 81.1153846,73.3971875 81.1153846,72.1875 L81.1153846,67.8125 C81.1153846,66.6028125 80.1354231,65.625 78.9230769,65.625" id="Fill-138" fill="#F07979"></path>
                <path d="M89.8846154,74.375 C91.0969615,74.375 92.0769231,73.3971875 92.0769231,72.1875 L92.0769231,67.8125 C92.0769231,66.6028125 91.0969615,65.625 89.8846154,65.625 C88.6722692,65.625 87.6923077,66.6028125 87.6923077,67.8125 L87.6923077,72.1875 C87.6923077,73.3971875 88.6722692,74.375 89.8846154,74.375" id="Fill-140" fill="#F07979"></path>
                <path d="M100.846154,65.625 C99.6338077,65.625 98.6538462,66.6028125 98.6538462,67.8125 L98.6538462,72.1875 C98.6538462,73.3971875 99.6338077,74.375 100.846154,74.375 C102.0585,74.375 103.038462,73.3971875 103.038462,72.1875 L103.038462,67.8125 C103.038462,66.6028125 102.0585,65.625 100.846154,65.625" id="Fill-142" fill="#F07979"></path>
                <path d="M85.5,126.875 L76.7307692,126.875 C75.5184231,126.875 74.5384615,127.852812 74.5384615,129.0625 C74.5384615,130.272188 75.5184231,131.25 76.7307692,131.25 L85.5,131.25 C86.7123462,131.25 87.6923077,130.272188 87.6923077,129.0625 C87.6923077,127.852812 86.7123462,126.875 85.5,126.875" id="Fill-144" fill="#F07979"></path>
                <path d="M67.9615385,126.875 L26.3076923,126.875 C25.0975385,126.875 24.1153846,127.852812 24.1153846,129.0625 C24.1153846,130.272188 25.0975385,131.25 26.3076923,131.25 L67.9615385,131.25 C69.1738846,131.25 70.1538462,130.272188 70.1538462,129.0625 C70.1538462,127.852812 69.1738846,126.875 67.9615385,126.875" id="Fill-146" fill="#F07979"></path>
                <path d="M98.6538462,78.75 L89.8846154,78.75 C88.6722692,78.75 87.6923077,79.7278125 87.6923077,80.9375 C87.6923077,82.1471875 88.6722692,83.125 89.8846154,83.125 L98.6538462,83.125 C99.8661923,83.125 100.846154,82.1471875 100.846154,80.9375 C100.846154,79.7278125 99.8661923,78.75 98.6538462,78.75" id="Fill-148" fill="#F07979"></path>
                <path d="M43.662,49.2891875 C43.9886538,49.4641875 44.3416154,49.545125 44.688,49.545125 C45.4728462,49.545125 46.2313846,49.125125 46.626,48.3835625 C47.1938077,47.31825 46.7860385,45.992625 45.7161923,45.4260625 L43.0306154,44.0041875 C41.9629615,43.428875 40.6344231,43.8423125 40.0666154,44.9098125 C39.501,45.975125 39.9065769,47.30075 40.9764231,47.8673125 L43.662,49.2891875 Z" id="Fill-150" fill="#F07979"></path>
            </g>
        </g>
    </g>
</svg>